<?xml version="1.0" encoding="utf-8"?>
<!-- Generator: Adobe Illustrator 23.1.0, SVG Export Plug-In . SVG Version: 6.00 Build 0)  -->
<svg version="1.1" id="Layer_1" xmlns="http://www.w3.org/2000/svg" xmlns:xlink="http://www.w3.org/1999/xlink" x="0px" y="0px"
	 viewBox="0 0 595.28 463.86" style="enable-background:new 0 0 595.28 463.86;" xml:space="preserve">
<style type="text/css">
	.st0{fill:#010101;}
	.st1{fill:#070807;}
	.st2{fill:#070907;}
	.st3{fill:#B6D434;}
	.st4{fill:#B7D23E;}
	.st5{fill:#B9D341;}
	.st6{fill:#B9D33F;}
	.st7{fill:#B8D345;}
	.st8{fill:#B8D343;}
	.st9{fill:#BAD33E;}
	.st10{fill:#050505;}
	.st11{fill:#B2CD38;}
	.st12{fill:#B6D434;stroke:#000000;stroke-width:5;stroke-miterlimit:10;}
	.st13{stroke:#000000;stroke-width:0.5637;stroke-miterlimit:10;}
	.st14{font-family:'Calibri-Bold';}
	.st15{font-size:29.8618px;}
	.st16{fill:#373E2B;}
	.st17{fill:#202715;}
	.st18{fill:#2F352D;}
	.st19{fill:#232C19;}
	.st20{fill:#1E2221;}
	.st21{fill:#171F11;}
	.st22{fill:#354522;}
	.st23{fill:#383E21;}
	.st24{fill:#3C4428;}
	.st25{fill:#131513;}
	.st26{fill:#5D7936;}
	.st27{fill:#222423;}
	.st28{fill:#5A7735;}
	.st29{fill:#B8D244;}
	.st30{fill:#434F34;}
	.st31{fill:#434B2A;}
	.st32{fill:#2C3519;}
	.st33{fill:#27331A;}
	.st34{fill:#577535;}
	.st35{fill:#161718;}
	.st36{fill:#638038;}
	.st37{fill:#364127;}
	.st38{fill:#2A2D24;}
	.st39{fill:#252818;}
	.st40{fill:#2B3227;}
	.st41{fill:#12180E;}
	.st42{fill:#3A4123;}
	.st43{fill:#4A533A;}
	.st44{fill:#383C24;}
	.st45{fill:#4B4F47;}
	.st46{fill:#3D4233;}
	.st47{fill:#2F3725;}
	.st48{fill:#3A4226;}
	.st49{fill:#393E33;}
	.st50{fill:#10120E;}
	.st51{fill:#212422;}
	.st52{fill:#444C3C;}
	.st53{fill:#010101;stroke:#000000;stroke-width:2;stroke-miterlimit:10;}
	.st54{fill:#FFFFFF;}
</style>
<path class="st0" d="M376.78,283.2c-16.72,8.06-34.53,12.34-52.81,14.83c-28.96,3.94-57.64,2.33-85.94-4.98
	c-6.85-1.77-13.78-3.47-20.09-6.86c-2.27-5.72-1.12-7.71,4.74-8.15c0.99-0.07,2,0.04,2.98-0.12c2.31-0.38,3.65-1.31,1.46-3.47
	c-1.03-1.02-1.84-1.9-1.1-3.4c4.14-4.17,9.96-5.8,14.4-9.51c9.7-8.11,19.05-16.48,22.67-29.26c0.24-0.44,0.59-0.78,1.04-1.02
	c1.26-0.07,2.3,0.52,3.15,1.3c5.59,5.14,12.41,5.02,19.29,4.49c6.62-0.51,10.44-4.54,12.61-10.4c0.74-2.01,1.16-4.14,1.32-6.3
	c0.57-8.07-1.62-15.19-9.3-18.77c-7.63-3.56-15.52-3.21-22.59,2.19c-1.45,1.1-2.71,2.46-4.45,3.15c-0.86,0.14-1.42-0.23-1.76-0.99
	c0.12-8.38-5.32-14.02-10.35-19.56c-7.77-8.56-17.75-14.23-28.05-19.26c-5.2-2.54-10.44-5.05-16.23-6.08
	c-0.93-0.36-1.98-0.61-1.82-1.96c16.73-8.31,34.52-13.11,52.91-15.98c17.45-2.72,34.99-3.43,52.57-1.95
	c12.99,1.09,25.96,2.56,38.44,6.68c1.97,1.83,4.77,1.07,6.96,2.2c2.99,1.02,5.97,2.04,8.96,3.06c5.99,0.82,3.78,5.51,4.26,8.93
	c-0.49,0.89-1.23,1.39-2.25,1.45c-2.45-0.57-3.54-2.75-4.99-4.4c-1.7-1.92-2.01,0.04-2.82,0.68c-0.12,0.11-0.22,0.27-0.37,0.37
	c0.22-0.21,0.44-0.41,0.71-0.61c1.28-0.38,2.44-0.3,2.67,1.22c0.2,1.35-0.2,3.28-1.39,3.39c-6.46,0.6-10.05,5.44-14.51,9.06
	c-1.09,0.88-2.66,1.31-4.19,1.35c-0.48-0.04-0.93-0.18-1.36-0.42c-2.48-2.15-9.7-1.29-11.3,1.47c-0.4,0.69,0.5,1.47,0.9,2.17
	c0.27,0.37,0.5,0.75,0.71,1.15c0.22,0.42,0.52,0.91,0.42,1.34c-0.8,3.4-0.74,3.77,1.24,5.94c-0.13,3.99-4.68,5.42-5.42,9.37
	c3.65,1.21,8.79-1.28,10.85,3.97c-0.49,0.71-1.21,1.02-2.04,1.17c-6.13-0.54-12.27-0.56-18.4-0.45c-5.44,0.1-6.1,0.67-6.13,5.97
	c-0.05,9.91-0.18,19.82,0.09,29.71c0.25,2.22,1.89,2.19,3.57,2.28c2.43,0.13,4.81-0.48,7.23-0.36c1.21,0.32,1.96,1.19,2.54,2.2
	c7.39,12.76,17.96,22.09,31.15,28.6c1.04,0.51,1.98,1.18,2.67,2.14c1.09,3.42,2.43,5.74,7.07,5.49c3.87-0.21,7.02,3.07,10.26,5.22
	C377.5,281.83,377.3,282.66,376.78,283.2z"/>
<path class="st1" d="M205.95,159.05c0.5,0.76,1.28,0.89,2.1,0.94c-0.69,3.29-3.84,3.9-6.12,5.24
	c-11.37,6.65-20.77,15.39-28.17,26.19c-13.76,20.08-12.43,43.31,3.55,61.82c6.3,7.3,13.47,13.68,21.48,19.13
	c3.4,2.31,6.87,3,10.85,2.16c4.4-0.92,8.64-2.36,12.98-3.47c1.44-0.37,2.84-1.08,4.25,0.06c-0.45,1.29-0.35,2.03,1.35,2.3
	c2.43,0.38,1.66,2.44,1.58,3.95c-0.08,1.79-1.53,1.84-2.89,1.86c-0.33,0-0.66,0-0.99,0.01c-7.72,0.27-7.72,0.27-7.99,6.95
	c-23.87-9.06-44.73-21.95-56.4-45.74c-6.48-13.22-6.26-26.99-0.22-40.31c8.1-17.87,22.37-29.69,39.64-38.31
	C202.66,160.98,203.96,159.39,205.95,159.05z"/>
<path class="st2" d="M369.78,161.87c-0.5-1.6-3.31-2.42-0.47-5.1c1.68-1.58-2.7-1.98-3.51-3.7c7.15,1.11,13.31,4.73,19.56,7.97
	c12.48,6.46,23.72,14.58,32.41,25.78c17.3,22.3,16.74,47.34-1.7,68.68c-10.76,12.45-24.21,21.27-39.3,27.71
	c-3.96-2.43-6.81-6.83-12.7-5.54c-5.15,1.13-3.82-4.02-5.25-6.48c1.58-1.33,3.21-0.6,4.68,0.07c12.94,5.91,24.34,3.47,35.03-5.56
	c12.04-10.17,22.31-21.25,25-37.58c2.47-14.98-2.41-27.83-11.5-39.23c-7.79-9.77-17.33-17.74-28.34-23.9
	c-3.55-1.99-6.91-4.04-11.21-2.37C371.59,162.97,370.52,162.75,369.78,161.87z"/>
<path class="st2" d="M356.85,150c-2.41-0.47-5.37,0.8-6.96-2.2C352.34,148.09,354.84,148.27,356.85,150z"/>
<path class="st3" d="M226.87,271.11c-5.64,1.29-10.97,3.62-16.72,4.67c-4.56,0.83-8.35,0.31-12.16-2.38
	c-12.17-8.6-23.34-18.17-29.79-31.9c-9.41-20.06-5.85-38.58,7.89-55.44c8.56-10.5,18.67-19.18,31.12-24.93
	c0.38-0.18,0.57-0.76,0.85-1.15c12.79,2.91,23.92,9.27,34.53,16.64c8.53,5.93,15.45,13.34,20.24,22.64c1.14,2.21,1.7,4.26,0.11,6.44
	c-2.54,9.09-2.82,18.11,0.82,27.02c-0.91,7.41-5.46,12.92-10.01,18.31C246.38,259.78,237.05,266.04,226.87,271.11z"/>
<path class="st3" d="M369.78,161.87c6.97-3.59,12.26,0.61,17.59,3.97c15.61,9.83,29.13,21.61,35.36,39.68
	c6.69,19.4,1.04,36.07-12.1,50.79c-5.75,6.45-12.8,11.34-20.04,16.11c-6.7,4.41-13.27,4.35-20.36,2.23c-3.8-1.14-7.6-2.3-11.4-3.45
	c-11.98-6.19-22.9-13.67-30.53-25.09c-1.64-2.45-3.05-5.07-4.56-7.6c-0.52-0.67-0.95-1.39-1.09-2.24c-0.26-2.19-0.13-4.39-0.17-6.59
	c0.5-5.83,0.9-6.27,6.77-6.4c3.47-0.07,6.82-0.49,9.91-2.14c0.35-0.32,0.72-0.62,1.09-0.91c1.8-1.02,2.99-2.51,3.48-4.54
	c1.81-3.42,1.29-6.82-0.08-10.21c-0.46-3.06-3.39-4.3-4.89-6.59c-2.98-1.73-6.23-1.8-9.54-1.64c-1.07,0.05-2.5,0.65-3.12-0.66
	c-0.57-1.22,0.66-2.06,1.31-2.95c1.83-2.51,3.71-4.97,5.57-7.46c1.77-4.83,6.32-6.96,9.97-9.85c5.8-4.6,12.26-8.23,18.93-11.47
	c1.93-0.94,3.95-1.53,6.07-1.83C368.57,162.63,369.18,162.25,369.78,161.87z"/>
<path class="st2" d="M367.97,163.01c-9.48,4.92-19.14,9.53-27.38,16.49c-2.57,2.17-5.07,4.44-7.6,6.66
	c-0.71-1.5-2.64-0.21-3.61-1.75c-1-1.58-2.19-2.63,0.76-2.94c2.67-0.28,0.8-1.68,0.69-2.64c0.55-0.55,1.42-0.55,2.6-1.32
	c-1.38,0.44-2,0.86-2.6,1.32c-0.81-1.03-1.76-1.98-2.4-3.1c-0.75-1.3-0.82-2.99,1.28-2.27c2.7,0.92,4.15-0.91,5.74-2.04
	c3.63-2.59,5.38-1.29,6.37,2.44c-0.22,0.22-0.44,0.43-0.67,0.64c0.24-0.2,0.46-0.41,0.67-0.64c3.72-1.12,7.19-2.12,9.14-6.31
	c1.44-3.1,5.28-3.43,8.56-3.61c1.74-0.09,2.24-1.1,2.5-2.47c0.41-2.13-1.29-1.28-2.22-1.53v0c0.23-1.45-0.69-3.45,1.77-3.86
	c2.06-0.34,1.45,1.54,2.1,2.42C364.9,160.15,366.51,161.52,367.97,163.01z"/>
<path class="st2" d="M356.32,156.27c-2.29,2.12-3.6,1.62-5.27,1.14C352.35,155.16,353.88,156.3,356.32,156.27z"/>
<path class="st2" d="M359.8,159.94c-0.15,1.1,0.46,2.89-1.84,2.1c-0.67-0.23-1.97-0.21-1.54-1.25
	C357.04,159.29,358.64,160.18,359.8,159.94L359.8,159.94z"/>
<path class="st2" d="M351.29,163c-0.36,0.77-0.98,0.9-1.64,0.81c-0.61-0.08-1.46-0.13-1.24-1.06c0.17-0.73,0.92-0.81,1.57-0.74
	C350.62,162.08,351.3,162.17,351.29,163z"/>
<path class="st0" d="M376.64,278.57c2.02-1.86,4.22-1.37,6.93-0.89C381.42,281.69,378.57,277.07,376.64,278.57z"/>
<path class="st4" d="M213.07,198.93c-0.03,11.53-0.05,23.05-0.08,34.58c-0.35-0.71-0.99-1.42-0.99-2.14
	c-0.07-10.59-0.06-21.18-0.05-31.77c0-0.28,0.11-0.67,0.31-0.82C212.42,198.68,212.79,198.88,213.07,198.93z"/>
<path class="st5" d="M239.98,240.13c3.95,0.17,7.91,0.33,11.86,0.5C247.83,241.71,243.84,242.5,239.98,240.13z"/>
<path class="st6" d="M225.84,196.97c-3.61-0.01-7.22-0.02-10.84-0.03C218.62,194.98,222.23,194.94,225.84,196.97z"/>
<path class="st7" d="M245.92,196.87c-1.56,0.43-3.13,0.44-4.7,0.04C242.77,194.84,244.34,195.42,245.92,196.87z"/>
<path class="st8" d="M351.83,240.31c11.3,0.09,22.6,0.18,33.9,0.27c-2.9,1.79-6.09,0.74-9.13,0.82c-6.75,0.18-13.5,0.09-20.25,0.03
	C354.8,241.42,353,242.04,351.83,240.31z"/>
<path class="st9" d="M384.73,196.6c-8.96,0-17.91-0.01-26.87-0.01C366.81,195.19,375.77,195.16,384.73,196.6z"/>
<path class="st10" d="M271.99,218.65c-0.36-5.36,1.24-9.55,5.85-11.93c3.61-1.86,7.02-0.84,10.11,1.68c2.89,2.35,3.06,5.8,3.59,8.94
	c0.96,5.71-2.12,11.21-6.27,12.92c-5.24,2.17-13.2-0.7-13.28-8.5C271.97,220.61,271.99,219.45,271.99,218.65z"/>
<path class="st0" d="M330.83,178.83c0.82-1.58,1.39-3.5,4.02-2.75C334.73,178.8,333.22,179.43,330.83,178.83L330.83,178.83z"/>
<path class="st0" d="M341.82,173.86c-0.12,1-0.35,1.93-1.66,1.83c-0.22-0.02-0.61-0.39-0.59-0.52
	C339.84,173.96,340.88,173.98,341.82,173.86L341.82,173.86z"/>
<path class="st11" d="M325.84,214.71c-4.05-1.43-1.69-4.48-1.75-6.91c0.49,0.03,0.97,0.06,1.46,0.08c2.15,0.07,4.93-0.96,5.31,2.51
	C331.25,214.02,328.53,214.43,325.84,214.71z"/>
<ellipse class="st12" cx="-288.16" cy="88.23" rx="150.91" ry="88.23"/>
<ellipse cx="-387.54" cy="95.46" rx="72.32" ry="95.46"/>
<ellipse cx="-187.22" cy="95.46" rx="72.32" ry="95.46"/>
<text transform="matrix(1.0981 0 0 1 134.7998 333.0474)" class="st13 st14 st15">HOPE MEDICAL CENTRE</text>
<path class="st0" d="M-280.19-218.25c-16.72,8.06-34.53,12.34-52.81,14.83c-28.96,3.94-57.64,2.33-85.94-4.98
	c-6.85-1.77-13.78-3.47-20.09-6.86c-2.27-5.72-1.12-7.71,4.74-8.15c0.99-0.07,2,0.04,2.98-0.12c2.31-0.38,3.65-1.31,1.46-3.47
	c-1.03-1.02-1.84-1.9-1.1-3.4c4.14-4.17,9.96-5.8,14.4-9.51c9.7-8.11,19.05-16.48,22.67-29.26c0.24-0.44,0.59-0.78,1.04-1.02
	c1.26-0.07,2.3,0.52,3.15,1.3c5.59,5.14,12.41,5.02,19.29,4.49c6.62-0.51,10.44-4.54,12.61-10.4c0.74-2.01,1.16-4.14,1.32-6.3
	c0.57-8.07-1.62-15.19-9.3-18.77c-7.63-3.56-15.52-3.21-22.59,2.19c-1.45,1.1-2.71,2.46-4.45,3.15c-0.86,0.14-1.42-0.23-1.76-0.99
	c0.12-8.38-5.32-14.02-10.35-19.56c-7.77-8.56-17.75-14.23-28.05-19.26c-5.2-2.54-10.44-5.05-16.23-6.08
	c-0.93-0.36-1.98-0.61-1.82-1.96c16.73-8.31,34.52-13.11,52.91-15.98c17.45-2.72,34.99-3.43,52.57-1.95
	c12.99,1.09,25.96,2.56,38.44,6.68c1.97,1.83,4.77,1.07,6.96,2.2c2.99,1.02,5.97,2.04,8.96,3.06c5.99,0.82,3.78,5.51,4.26,8.93
	c-0.49,0.89-1.23,1.39-2.25,1.45c-2.45-0.57-3.54-2.75-4.99-4.4c-1.7-1.92-2.01,0.04-2.82,0.68c-0.12,0.11-0.22,0.27-0.37,0.37
	c0.22-0.21,0.44-0.41,0.71-0.61c1.28-0.38,2.44-0.3,2.67,1.22c0.2,1.35-0.2,3.28-1.39,3.39c-6.46,0.6-10.05,5.44-14.51,9.06
	c-1.09,0.88-2.66,1.31-4.19,1.35c-0.48-0.04-0.93-0.18-1.36-0.42c-2.48-2.15-9.7-1.29-11.3,1.47c-0.4,0.69,0.5,1.47,0.9,2.17
	c0.27,0.37,0.5,0.75,0.71,1.15c0.22,0.42,0.52,0.91,0.42,1.34c-0.8,3.4-0.74,3.77,1.24,5.94c-0.13,3.99-4.68,5.42-5.42,9.37
	c3.65,1.21,8.79-1.28,10.85,3.97c-0.49,0.71-1.21,1.02-2.04,1.17c-6.13-0.54-12.27-0.56-18.4-0.45c-5.44,0.1-6.1,0.67-6.13,5.97
	c-0.05,9.91-0.18,19.82,0.09,29.71c0.25,2.22,1.89,2.19,3.57,2.28c2.43,0.13,4.81-0.48,7.23-0.36c1.21,0.32,1.96,1.19,2.54,2.2
	c7.39,12.76,17.96,22.09,31.15,28.6c1.04,0.51,1.98,1.18,2.67,2.14c1.09,3.42,2.43,5.74,7.07,5.49c3.87-0.21,7.02,3.07,10.26,5.22
	C-279.47-219.62-279.67-218.79-280.19-218.25z"/>
<path class="st1" d="M-451.02-342.4c0.5,0.76,1.28,0.89,2.1,0.94c-0.69,3.29-3.84,3.9-6.12,5.24
	c-11.37,6.65-20.77,15.39-28.17,26.19c-13.76,20.08-12.43,43.31,3.55,61.82c6.3,7.3,13.47,13.68,21.48,19.13
	c3.4,2.31,6.87,3,10.85,2.16c4.4-0.92,8.64-2.36,12.98-3.47c1.44-0.37,2.84-1.08,4.25,0.06c-0.45,1.29-0.35,2.03,1.35,2.3
	c2.43,0.38,1.66,2.44,1.58,3.95c-0.08,1.79-1.53,1.84-2.89,1.86c-0.33,0-0.66,0-0.99,0.01c-7.72,0.27-7.72,0.27-7.99,6.95
	c-23.87-9.06-44.73-21.95-56.4-45.74c-6.48-13.22-6.26-26.99-0.22-40.31c8.1-17.87,22.37-29.69,39.64-38.31
	C-454.31-340.47-453.01-342.06-451.02-342.4z"/>
<path class="st2" d="M-287.18-339.58c-0.5-1.6-3.31-2.42-0.47-5.1c1.68-1.58-2.7-1.98-3.51-3.7c7.15,1.11,13.31,4.73,19.56,7.97
	c12.48,6.46,23.72,14.58,32.41,25.78c17.3,22.3,16.74,47.34-1.7,68.68c-10.76,12.45-24.21,21.27-39.3,27.71
	c-3.96-2.43-6.81-6.83-12.7-5.54c-5.15,1.13-3.82-4.02-5.25-6.48c1.58-1.33,3.21-0.6,4.68,0.07c12.94,5.91,24.34,3.47,35.03-5.56
	c12.04-10.17,22.31-21.25,25-37.58c2.47-14.98-2.41-27.83-11.5-39.23c-7.79-9.77-17.33-17.74-28.34-23.9
	c-3.55-1.99-6.91-4.04-11.21-2.37C-285.38-338.48-286.45-338.7-287.18-339.58z"/>
<path class="st2" d="M-300.12-351.45c-2.41-0.47-5.37,0.8-6.96-2.2C-304.63-353.35-302.13-353.18-300.12-351.45z"/>
<path class="st3" d="M-430.1-230.34c-5.64,1.29-10.97,3.62-16.72,4.67c-4.56,0.83-8.35,0.31-12.16-2.38
	c-12.17-8.6-23.34-18.17-29.79-31.9c-9.41-20.06-5.85-38.58,7.89-55.44c8.56-10.5,18.67-19.18,31.12-24.93
	c0.38-0.18,0.57-0.76,0.85-1.15c12.79,2.91,23.92,9.27,34.53,16.64c8.53,5.93,15.45,13.34,20.24,22.64c1.14,2.21,1.7,4.26,0.11,6.44
	c-2.54,9.09-2.82,18.11,0.82,27.02c-0.91,7.41-5.46,12.92-10.01,18.31C-410.59-241.67-419.92-235.41-430.1-230.34z"/>
<path class="st3" d="M-287.18-339.58c6.97-3.59,12.26,0.61,17.59,3.97c15.61,9.83,29.13,21.61,35.36,39.68
	c6.69,19.4,1.04,36.07-12.1,50.79c-5.75,6.45-12.8,11.34-20.04,16.11c-6.7,4.41-13.27,4.35-20.36,2.23c-3.8-1.14-7.6-2.3-11.4-3.45
	c-11.98-6.19-22.9-13.67-30.53-25.09c-1.64-2.45-3.05-5.07-4.56-7.6c-0.52-0.67-0.95-1.39-1.09-2.24c-0.26-2.19-0.13-4.39-0.17-6.59
	c0.5-5.83,0.9-6.27,6.77-6.4c3.47-0.07,6.82-0.49,9.91-2.14c0.35-0.32,0.72-0.62,1.09-0.91c1.8-1.02,2.99-2.51,3.48-4.54
	c1.81-3.42,1.29-6.82-0.08-10.21c-0.46-3.06-3.39-4.3-4.89-6.59c-2.98-1.73-6.23-1.8-9.54-1.64c-1.07,0.05-2.5,0.65-3.12-0.66
	c-0.57-1.22,0.66-2.06,1.31-2.95c1.83-2.51,3.71-4.97,5.57-7.46c1.77-4.83,6.32-6.96,9.97-9.85c5.8-4.6,12.26-8.23,18.93-11.47
	c1.93-0.94,3.95-1.53,6.07-1.83C-288.4-338.82-287.79-339.2-287.18-339.58z"/>
<path class="st2" d="M-289-338.44c-9.48,4.92-19.14,9.53-27.38,16.49c-2.57,2.17-5.07,4.44-7.6,6.66c-0.71-1.5-2.64-0.21-3.61-1.75
	c-1-1.58-2.19-2.63,0.76-2.94c2.67-0.28,0.8-1.68,0.69-2.64c0.55-0.55,1.42-0.55,2.6-1.32c-1.38,0.44-2,0.86-2.6,1.32
	c-0.81-1.03-1.76-1.98-2.4-3.1c-0.75-1.3-0.82-2.99,1.28-2.27c2.7,0.92,4.15-0.91,5.74-2.04c3.63-2.59,5.38-1.29,6.37,2.44
	c-0.22,0.22-0.44,0.43-0.67,0.64c0.24-0.2,0.46-0.41,0.67-0.64c3.72-1.12,7.19-2.12,9.14-6.31c1.44-3.1,5.28-3.43,8.56-3.61
	c1.74-0.09,2.24-1.1,2.5-2.47c0.41-2.13-1.29-1.28-2.22-1.53v0c0.23-1.45-0.69-3.45,1.77-3.86c2.06-0.34,1.45,1.54,2.1,2.42
	C-292.07-341.3-290.46-339.93-289-338.44z"/>
<path class="st16" d="M-393.09-294.82c-0.74,2.34-1.47,4.68-2.21,7.02c-0.44,3.63-0.54,7.26,0.05,10.89
	c-0.12,2.52,2.04,4.27,2.28,6.68c-0.08,0.5-0.16,1.01-0.24,1.51c-5.42-6.16-5.83-19.74-0.82-27.02
	C-393.72-295.43-393.41-295.12-393.09-294.82z"/>
<path class="st17" d="M-346.05-264.11c2.85,1.97,6.05,0.75,9.07,0.9c1.9,0.1,1.63-1.64,1.66-2.92c0.1-3.58,0.18-7.17,0.28-10.76
	c2.81,0.89,0.72,3.21,1.39,4.72c0.1,2.38-0.22,4.78,0.2,7.15c0.08,0.68,0.15,1.36,0.23,2.04c-3.32,1.24-6.77,1-10.21,0.98
	C-344.9-262-346.07-262.32-346.05-264.11z"/>
<path class="st18" d="M-313.22-294.63c-1.16-3.04-2.82-5.68-5.93-7.11c0.32-0.28,0.63-0.56,0.95-0.84c3.44,0.48,5.07,2.72,5.78,5.87
	C-312.84-296.08-312.37-295.1-313.22-294.63z"/>
<path class="st2" d="M-300.65-345.18c-2.29,2.12-3.6,1.62-5.27,1.14C-304.62-346.29-303.09-345.15-300.65-345.18z"/>
<path class="st2" d="M-297.17-341.51c-0.15,1.1,0.46,2.89-1.84,2.1c-0.67-0.23-1.97-0.21-1.54-1.25
	C-299.93-342.16-298.33-341.27-297.17-341.51L-297.17-341.51z"/>
<path class="st2" d="M-305.68-338.45c-0.36,0.77-0.98,0.9-1.64,0.81c-0.61-0.08-1.46-0.13-1.24-1.06c0.17-0.73,0.92-0.81,1.57-0.74
	C-306.35-339.37-305.67-339.28-305.68-338.45z"/>
<path class="st0" d="M-280.33-222.88c2.02-1.86,4.22-1.37,6.93-0.89C-275.55-219.76-278.4-224.38-280.33-222.88z"/>
<path class="st19" d="M-417.04-302.73c0.43-0.6,0.86-1.21,1.29-1.81c1.56-0.67,3.13-0.81,4.7-0.04c8.28,0.62,8.4,0.62,8.27,8.92
	c-0.17,11.18,0.6,22.38-0.44,33.55c-0.76,0.78-1.49,0.7-2.2-0.06c-0.26-0.51-0.4-1.06-0.42-1.64c0.69-10.18,0.24-20.37,0.31-30.56
	c0.04-6.49-0.58-7-7.11-6.83c-0.83,0.02-1.65,0.09-2.48,0C-416.12-301.26-416.59-301.99-417.04-302.73z"/>
<path class="st20" d="M-442.91-262.08c-0.22-0.18-0.29-0.41-0.23-0.69c-1.65-12.58-0.66-25.22-0.79-37.84
	c-0.01-0.85,0.38-1.59,0.83-2.29c0.31-0.3,0.63-0.61,0.94-0.91c3.73-1.42,7.46-1.46,11.18,0.01l-0.02,0.01
	c0.48,0.82,0.66,1.6-0.21,2.3c-9.37,0.92-9.37,0.92-9.37,10.57c0,6.56,0.18,13.13-0.06,19.69c-0.16,4.27,0.86,7.08,5.72,7.15
	c0.65,0.01,1.24,0.42,1.78,0.83c0.4,0.55,0.38,1.08-0.05,1.6C-436.48-260.77-439.75-260.29-442.91-262.08z"/>
<path class="st21" d="M-433.04-262.12c0-0.26,0-0.52,0-0.79c0.25-4.09,0.46-8.17,0.58-12.27c0.15-4.9,1.31-6.09,6.31-6.09
	c3.11,0,6.66-1.25,9.17,1.92c-3.82,2.37-8.17-0.09-12.09,1.32c-0.11,3.78-0.16,7.56-0.34,11.34c-0.08,1.73,0.57,3.72-1.41,4.93
	C-431.65-261.38-432.4-261.43-433.04-262.12z"/>
<path class="st22" d="M-443.11-302.89c-0.01,13.37-0.02,26.75-0.03,40.12c-1.46-1.54-0.75-3.42-0.84-5.17
	c-0.86-11.53-0.98-23.05,0.08-34.58C-443.63-302.63-443.36-302.75-443.11-302.89z"/>
<path class="st23" d="M-431.16-301.4c0.05-0.79,0.11-1.59,0.16-2.38c0.36,0.23,0.72,0.47,1.07,0.7c1.22,4.34-0.69,8.92,1.02,13.23
	c3.62,0.02,7.24,0.04,10.86,0.06c0.9,0.49,1.56,1.07,0.77,2.17c-3.58,2.06-7.4,1.36-11.16,0.85c-1.97-0.27-3.4-1.62-3.67-3.58
	C-432.6-294.08-433.41-297.89-431.16-301.4z"/>
<path class="st4" d="M-443.9-302.52c-0.03,11.53-0.05,23.05-0.08,34.58c-0.35-0.71-0.99-1.42-0.99-2.14
	c-0.07-10.59-0.06-21.18-0.05-31.77c0-0.28,0.11-0.67,0.31-0.82C-444.55-302.77-444.18-302.57-443.9-302.52z"/>
<path class="st24" d="M-429.08-278.03c3.91-1.96,8.11-0.38,12.14-0.97c0.19,0.23,0.38,0.46,0.57,0.68c1,4.94,1.18,9.87-0.12,14.79
	c-0.21,0.2-0.43,0.41-0.65,0.61c-1.23-3.52-0.61-7.18-0.49-10.74c0.11-3.48-1.03-4.76-4.51-4.39
	C-424.42-277.81-426.76-278.02-429.08-278.03z"/>
<path class="st25" d="M-416.87-288.65c-0.39-0.38-0.78-0.76-1.18-1.14c1.57-4.22-0.15-8.69,1-12.94c0.36,0.4,0.72,0.79,1.08,1.19
	C-414.2-297.11-412.96-292.7-416.87-288.65z"/>
<path class="st26" d="M-405.08-262.07c0.62-0.01,1.24-0.02,1.86-0.03c-0.34,0.87-1.13,1.07-1.91,1.28c-3.97,0.2-7.97,1.11-11.86-0.5
	c-0.02-0.26,0.01-0.52,0.07-0.78C-412.97-263.99-409.03-264-405.08-262.07z"/>
<path class="st27" d="M-405.08-262.07c-3.95-0.01-7.89-0.02-11.84-0.03c-0.22-0.24-0.29-0.51-0.22-0.82c0,0,0.39-0.23,0.39-0.23
	c0.18-0.56,0.54-0.96,1.08-1.2c3.55,0.12,7.23-0.79,10.55,1.27C-405.11-262.74-405.1-262.41-405.08-262.07z"/>
<path class="st22" d="M-428.9-289.85c-2.37-4.25-0.67-8.82-1.02-13.23C-428.27-298.77-430.06-294.2-428.9-289.85z"/>
<path class="st28" d="M-433.04-262.12c0.74,0.12,1.47,0.24,2.21,0.36c-0.03,0.29-0.1,0.56-0.21,0.83c-3.99,0.39-8,1.25-11.92-0.42
	c-0.02-0.24-0.01-0.49,0.05-0.72C-439.62-262.09-436.33-262.11-433.04-262.12z"/>
<path class="st29" d="M-442.96-261.35c3.97,0.14,7.95,0.28,11.92,0.42C-435.07-259.64-439.07-258.96-442.96-261.35z"/>
<path class="st5" d="M-416.99-261.32c3.95,0.17,7.91,0.33,11.86,0.5C-409.14-259.74-413.13-258.95-416.99-261.32z"/>
<path class="st22" d="M-430.98-303.79c-3.73,0-7.46,0-11.18-0.01c0.09-0.23,0.16-0.47,0.2-0.72c3.61-1.1,7.23-1.15,10.83,0.03
	C-431.09-304.25-431.04-304.02-430.98-303.79z"/>
<path class="st6" d="M-431.13-304.48c-3.61-0.01-7.22-0.02-10.84-0.03C-438.35-306.47-434.74-306.51-431.13-304.48z"/>
<path class="st7" d="M-411.05-304.58c-1.56,0.43-3.13,0.44-4.7,0.04C-414.2-306.61-412.63-306.03-411.05-304.58z"/>
<path class="st30" d="M-305.23-261.88c-0.22-0.24-0.62-0.47-0.64-0.72c-0.71-13.32-0.37-26.65-0.16-39.97
	c0.01-0.35,0.61-0.69,0.93-1.03c1.01,0.27,1.57,0.99,1.92,1.92c0.85,12.65,0.94,25.3-0.05,37.95c-0.24,0.6-0.62,1.1-1.13,1.5
	C-304.64-262.12-304.93-262-305.23-261.88z"/>
<path class="st31" d="M-271.23-271.84c3.88,2.95,2.14,6.5,1.08,9.98c-0.27-0.1-0.53-0.2-0.8-0.3c-0.46-0.34-0.81-0.76-1.05-1.28
	c-0.41-4.15-2.85-5.16-6.81-5.24c-4.49-0.08-9.32,1.62-13.49-1.56c-0.09-0.66,0.2-1.06,0.85-1.21
	C-284.7-271.64-277.95-270.9-271.23-271.84z"/>
<path class="st32" d="M-272.13-279.85c-0.85,2.38-2.92,1.71-4.62,1.76c-4.78,0.14-9.56,0.17-14.35,0.25
	c-1.25,0.17-1.45-0.57-1.37-1.55c1.24-2.01,3.33-1.82,5.24-1.85c4.4-0.06,8.8-0.12,13.2-0.19
	C-273.06-281.31-272.44-280.77-272.13-279.85z"/>
<path class="st33" d="M-290.83-288.98c4.71-0.01,9.43-0.09,14.14,0.01c1.51,0.03,3.33-0.66,4.39,1.19
	c-0.39,0.83-0.91,1.54-1.83,1.86c-4.58,0.98-9.22,0.49-13.83,0.41c-1.68-0.03-3.29-0.45-4.28-2.03
	C-292.45-288.69-292.1-289.28-290.83-288.98z"/>
<path class="st34" d="M-270.15-261.86c-0.36,0.33-0.72,0.66-1.09,0.99c-11.3,0.42-22.61,0.97-33.9-0.27
	c-0.02-0.25-0.05-0.5-0.09-0.74c0.04-0.16,0.12-0.31,0.22-0.44c6.52-2.04,13.21-0.86,19.82-0.98c4.94-0.09,9.99-0.88,14.83,0.98
	C-270.25-262.18-270.18-262.03-270.15-261.86z"/>
<path class="st35" d="M-303.81-302.54c-0.43-0.36-0.85-0.72-1.28-1.07c0,0-0.08-0.11-0.08-0.11c10.34-1.65,20.75-0.86,31.14-0.91
	c1-0.01,1.94,0.37,2.75,1.01c0.12,0.27,0.18,0.55,0.17,0.85c-0.23,0.22-0.45,0.43-0.67,0.65c-0.55,0.31-1.13,0.52-1.75,0.65
	c-8.54,0.53-17.09,0.18-25.63,0.21C-300.8-301.27-302.48-301.34-303.81-302.54z"/>
<path class="st36" d="M-271.28-303.63c-11.3-0.03-22.59-0.06-33.89-0.1c1.73-1.89,4.07-0.55,6.05-1.13
	c8.96-0.56,17.91-0.6,26.87,0.01C-271.92-304.44-271.6-304.04-271.28-303.63z"/>
<path class="st8" d="M-305.14-261.14c11.3,0.09,22.6,0.18,33.9,0.27c-2.9,1.79-6.09,0.74-9.13,0.82c-6.75,0.18-13.5,0.09-20.25,0.03
	C-302.17-260.03-303.97-259.41-305.14-261.14z"/>
<path class="st37" d="M-334.13-271.89c-0.34-1.66,0.59-3.54-0.91-4.99c-0.17-0.65,0.14-0.96,0.76-1.07
	c2.64-1.07,5.49,0.15,8.14-0.73c3.33-0.76,6.66-1.52,9.99-2.28c-2.8,4.93-7.85,4.17-12.19,4.25c-3.74,0.07-5.61,0.89-5.19,4.82
	C-333.73-271.89-333.93-271.89-334.13-271.89z"/>
<path class="st38" d="M-271.11-302.78c2.75,6.97,1.44,8.99-5.49,9.21c-4.89,0.16-9.85-0.96-14.66,0.75
	c-1.8-0.15-1.44-1.18-0.94-2.27c0.43-0.35,0.91-0.59,1.44-0.75c5.48-0.7,11.01,0.08,16.49-0.48c0.38-0.24,0.76-0.5,1.1-0.79
	c1.34-1.64,0.24-4.12,1.94-5.62L-271.11-302.78z"/>
<path class="st9" d="M-272.24-304.85c-8.96,0-17.91-0.01-26.87-0.01C-290.16-306.26-281.2-306.29-272.24-304.85z"/>
<path class="st39" d="M-271.23-271.84c-6.86,1.78-13.82,0.58-20.73,0.64c-0.87-0.99-0.77-1.59,0.67-1.67
	C-284.69-270.88-277.89-272.73-271.23-271.84z"/>
<path class="st40" d="M-313.22-294.63c0.26-0.69,0.53-1.39,0.79-2.08c2.03,3.91,2.24,7.83,0.02,11.75
	c-1.72-0.06-1.19-1.08-0.86-2.01C-313.25-289.52-313.24-292.08-313.22-294.63z"/>
<path class="st41" d="M-273.33-286.58c0.34-0.4,0.68-0.81,1.02-1.21c1,2.63,1.11,5.27,0.17,7.94c-0.39-0.37-0.78-0.73-1.17-1.1
	C-274.76-282.82-274.74-284.7-273.33-286.58z"/>
<path class="st42" d="M-291.3-272.87c-0.69,0.37-0.82,0.97-0.67,1.67c0,0-0.21,0.26-0.21,0.26c-3.19-2.81-3.23-4.76-0.18-8.22
	c0.42,0.44,0.83,0.88,1.25,1.32C-291.17-276.19-291.23-274.53-291.3-272.87z"/>
<path class="st43" d="M-313.26-286.96c0.29,0.67,0.57,1.34,0.86,2.01c-0.94,1.67-0.64,4.49-3.83,4.07
	C-315.24-282.92-314.25-284.94-313.26-286.96z"/>
<path class="st44" d="M-292.24-294.47c0.33,0.55,0.66,1.1,0.99,1.65c0.14,1.28,0.28,2.56,0.42,3.84c-0.45,0.33-0.89,0.66-1.34,0.98
	C-295.25-290.47-295.26-292.03-292.24-294.47z"/>
<path class="st45" d="M-334.13-271.89c0.2-0.02,0.4-0.02,0.6,0.01c0.02,2.29,0.05,4.58,0.07,6.88
	C-334.8-267.19-333.87-269.6-334.13-271.89z"/>
<path class="st10" d="M-384.98-282.8c-0.36-5.36,1.24-9.55,5.85-11.93c3.61-1.86,7.02-0.83,10.11,1.68c2.89,2.35,3.06,5.8,3.59,8.94
	c0.96,5.71-2.12,11.21-6.27,12.92c-5.24,2.17-13.2-0.7-13.28-8.5C-384.99-280.84-384.98-282-384.98-282.8z"/>
<path class="st46" d="M-395.25-276.91c-1.37-3.62-1.3-7.25-0.05-10.89C-395.28-284.17-395.27-280.54-395.25-276.91z"/>
<path class="st47" d="M-326.61-294.95c3.52,1.02,2.75,3.68,2.57,6.28c-0.22,3.25-2.58,2.8-4.64,3.01c-0.94,0.17-1.93,0.61-2.63-0.49
	c0.01-0.16-0.03-0.34,0.03-0.48c0.68-1.77,4.05-1.7,3.32-4.2c-0.76-2.63-3.73-1.25-5.46-2.29c-0.67-0.4-1.13-0.9-0.81-1.75l-0.01,0
	C-331.71-295.54-329.16-295.4-326.61-294.95z"/>
<path class="st48" d="M-334.23-294.87c0.45,0.41,0.9,0.81,1.35,1.22c1.37,2.11,1.09,4.63,1.75,6.91c0.58,0.89,1.54,0.93,2.46,1.08
	c-1.94,1.21-4.78,1.91-5.79,0.19C-336.11-288.27-336.31-291.79-334.23-294.87z"/>
<path class="st45" d="M-326.14-278.67c-2.59,1.64-5.42,0.63-8.14,0.73C-331.67-279.3-328.86-278.46-326.14-278.67z"/>
<path class="st49" d="M-326.61-294.95c-2.55,0.02-5.09,0.05-7.64,0.07C-331.71-295.83-329.17-296.38-326.61-294.95z"/>
<path class="st0" d="M-326.14-322.62c0.82-1.58,1.39-3.5,4.02-2.75C-322.24-322.65-323.75-322.02-326.14-322.62L-326.14-322.62z"/>
<path class="st0" d="M-315.15-327.59c-0.12,1-0.35,1.93-1.66,1.83c-0.22-0.02-0.61-0.39-0.59-0.52
	C-317.13-327.49-316.09-327.47-315.15-327.59L-315.15-327.59z"/>
<path class="st50" d="M-416.98-279.03c2.46,4.82,0.67,9.93,1.03,14.89c-0.27,0.33-0.53,0.67-0.8,1
	C-416.83-268.44-416.91-273.74-416.98-279.03z"/>
<path class="st51" d="M-303.82-263.13c10.76,0,21.52,0,32.28,0c0.4,0.27,0.79,0.55,1.19,0.82c-11.55,0.57-23.1,0.56-34.65-0.01
	C-304.61-262.6-304.22-262.86-303.82-263.13z"/>
<path class="st52" d="M-272.1-295.75c0.04-2.29,0.37-4.59-0.38-6.83c0.42-0.05,0.84-0.1,1.26-0.16
	C-271.43-300.4-270.21-297.88-272.1-295.75z"/>
<path class="st52" d="M-291.47-294.96c6.39-1.42,12.89,0,19.31-0.73C-278.53-293.67-285.02-294.95-291.47-294.96z"/>
<g>
	<g>
		<path class="st0" d="M322.02,242.48c0.19-0.48,0.26-1.03,0.27-1.54c0.01-0.52-0.07-1.06-0.23-1.55c-0.4-1.21-1.13-2.18-2.18-2.89
			c-0.98-0.66-2.29-0.86-3.45-0.75c-1.13,0.1-2.24,0.3-3.3,0.7c-0.62,0.24-1.15,0.56-1.49,1.15c-0.31,0.54-0.45,1.33-0.25,1.93
			c0.2,0.6,0.57,1.19,1.15,1.49c0.56,0.3,1.31,0.49,1.93,0.25c0.73-0.28,1.49-0.47,2.27-0.57c-0.22,0.03-0.44,0.06-0.66,0.09
			c0.48-0.06,0.97-0.09,1.45-0.03c-0.22-0.03-0.44-0.06-0.66-0.09c0.26,0.04,0.5,0.1,0.74,0.2c-0.2-0.08-0.4-0.17-0.6-0.25
			c0.18,0.08,0.35,0.19,0.51,0.31c-0.17-0.13-0.34-0.26-0.51-0.39c0.16,0.13,0.29,0.27,0.42,0.43c-0.13-0.17-0.26-0.34-0.39-0.51
			c0.15,0.2,0.28,0.42,0.38,0.65c-0.08-0.2-0.17-0.4-0.25-0.6c0.09,0.24,0.16,0.48,0.2,0.73c-0.03-0.22-0.06-0.44-0.09-0.66
			c0.03,0.23,0.03,0.45,0,0.67c0.03-0.22,0.06-0.44,0.09-0.66c-0.03,0.2-0.08,0.39-0.16,0.58c-0.23,0.56-0.04,1.43,0.25,1.93
			c0.3,0.52,0.9,1.01,1.49,1.15c0.64,0.15,1.36,0.11,1.93-0.25c0.17-0.13,0.34-0.26,0.51-0.39
			C321.68,243.27,321.9,242.9,322.02,242.48L322.02,242.48z"/>
	</g>
</g>
<g>
	<g>
		<path class="st0" d="M323.94,239.68c-0.54-1.14-1.33-2.2-2.23-3.09c-0.9-0.89-1.97-1.66-3.12-2.19c-0.29-0.18-0.6-0.28-0.93-0.3
			c-0.33-0.07-0.66-0.06-1,0.04c-0.58,0.16-1.21,0.61-1.49,1.15c-0.31,0.58-0.46,1.28-0.25,1.93c0.19,0.58,0.57,1.23,1.15,1.49
			c0.65,0.29,1.25,0.66,1.81,1.09c-0.17-0.13-0.34-0.26-0.51-0.39c0.61,0.48,1.16,1.03,1.64,1.65c-0.13-0.17-0.26-0.34-0.39-0.51
			c0.39,0.51,0.72,1.06,1,1.64c0.25,0.54,0.94,1,1.49,1.15c0.6,0.16,1.4,0.09,1.93-0.25c0.53-0.34,1-0.86,1.15-1.49
			c0.03-0.22,0.06-0.44,0.09-0.66C324.28,240.49,324.17,240.07,323.94,239.68L323.94,239.68z"/>
	</g>
</g>
<path class="st11" d="M-331.13-286.74c-4.05-1.43-1.69-4.48-1.75-6.91c0.49,0.03,0.97,0.06,1.46,0.08c2.15,0.07,4.93-0.96,5.31,2.51
	C-325.72-287.43-328.44-287.02-331.13-286.74z"/>
<text transform="matrix(1.0981 0 0 1 -503.9697 -169.1911)" class="st14" style="stroke:#000000;stroke-width:0.5;stroke-miterlimit:10; font-size:26.4856px;">HOPE MEDICAL CENTRE</text>
<path class="st3" d="M103.45-259.76c0,32.67-33.28,59.15-74.32,59.15c-41.04,0-74.31-26.48-74.31-59.15
	c0-32.66,33.27-59.15,74.31-59.15C70.17-318.91,103.45-292.42,103.45-259.76z"/>
<g>
	<g>
		<path class="st3" d="M331.12,196.59c-0.08,0.88-0.16,1.75-0.25,2.63c-0.01,0.34,0.06,0.67,0.22,0.96c0.1,0.31,0.27,0.58,0.52,0.8
			c0.23,0.24,0.49,0.42,0.8,0.52c0.3,0.16,0.62,0.23,0.96,0.22c0.22-0.03,0.44-0.06,0.66-0.09c0.42-0.12,0.79-0.33,1.1-0.64
			c0.13-0.17,0.26-0.34,0.39-0.51c0.23-0.39,0.34-0.81,0.34-1.26c0.08-0.88,0.16-1.75,0.25-2.63c0.01-0.34-0.06-0.67-0.22-0.96
			c-0.1-0.31-0.27-0.58-0.52-0.8c-0.23-0.24-0.49-0.42-0.8-0.52c-0.3-0.16-0.62-0.23-0.96-0.22c-0.22,0.03-0.44,0.06-0.66,0.09
			c-0.42,0.12-0.79,0.33-1.1,0.64c-0.13,0.17-0.26,0.34-0.39,0.51C331.23,195.72,331.12,196.14,331.12,196.59L331.12,196.59z"/>
	</g>
</g>
<g>
	<g>
		<path class="st3" d="M337.27,195.74c-0.14,0.04-0.28,0.11-0.41,0.16c-0.12,0.05-0.28,0.11-0.4,0.18
			c-0.25,0.14-0.47,0.33-0.68,0.52c-0.03,0.03-0.06,0.06-0.09,0.1c-0.16,0.19-0.31,0.39-0.45,0.59c-0.05,0.08-0.1,0.16-0.13,0.24
			c-0.17,0.38-0.34,0.74-0.4,1.15c-0.07,0.44-0.11,0.89-0.17,1.34c0.03-0.22,0.06-0.44,0.09-0.66c-0.01,0.08-0.02,0.16-0.04,0.24
			c-0.1,0.33-0.12,0.66-0.04,1c0.02,0.33,0.11,0.64,0.3,0.93c0.16,0.29,0.37,0.53,0.64,0.7c0.24,0.22,0.52,0.37,0.85,0.45
			c0.22,0.03,0.44,0.06,0.66,0.09c0.45,0,0.87-0.12,1.26-0.34c0.17-0.13,0.34-0.26,0.51-0.39c0.31-0.31,0.52-0.68,0.64-1.1
			c0.09-0.49,0.13-1,0.2-1.49c-0.03,0.22-0.06,0.44-0.09,0.66c0.03-0.2,0.07-0.4,0.15-0.59c-0.08,0.2-0.17,0.4-0.25,0.6
			c0.05-0.12,0.12-0.24,0.2-0.34c-0.13,0.17-0.26,0.34-0.39,0.51c0.06-0.07,0.12-0.13,0.19-0.19c-0.17,0.13-0.34,0.26-0.51,0.39
			c0.06-0.05,0.13-0.09,0.2-0.12c-0.2,0.08-0.4,0.17-0.6,0.25c0.04-0.01,0.07-0.03,0.11-0.04c0.33-0.08,0.61-0.23,0.85-0.45
			c0.27-0.18,0.49-0.41,0.64-0.7c0.18-0.29,0.28-0.6,0.3-0.93c0.07-0.33,0.06-0.66-0.04-1c-0.08-0.2-0.17-0.4-0.25-0.6
			c-0.22-0.38-0.52-0.67-0.9-0.9c-0.2-0.08-0.4-0.17-0.6-0.25C338.15,195.62,337.71,195.62,337.27,195.74L337.27,195.74z"/>
	</g>
</g>
<g>
	<g>
		<path class="st3" d="M332.52,192.76c-0.5,0.04-0.97,0.13-1.41,0.39c-0.39,0.24-0.75,0.6-0.98,1c-0.23,0.39-0.35,0.83-0.48,1.26
			c-0.16,0.55-0.28,1.14-0.5,1.67c0.08-0.2,0.17-0.4,0.25-0.6c-0.05,0.11-0.11,0.21-0.18,0.31c0.13-0.17,0.26-0.34,0.39-0.51
			c-0.24,0.3-0.51,0.58-0.77,0.86c-0.26,0.29-0.51,0.61-0.8,0.87c0.17-0.13,0.34-0.26,0.51-0.39c-0.02,0.01-0.04,0.03-0.06,0.04
			c0.2-0.08,0.4-0.17,0.6-0.25c-0.02,0.01-0.05,0.01-0.07,0.02c0.22-0.03,0.44-0.06,0.66-0.09c-0.02,0-0.04,0-0.06,0
			c0.22,0.03,0.44,0.06,0.66,0.09c-0.02,0-0.04-0.01-0.06-0.01c0.2,0.08,0.4,0.17,0.6,0.25c-0.02-0.01-0.03-0.02-0.05-0.03
			c0.17,0.13,0.34,0.26,0.51,0.39c-0.03-0.02-0.06-0.05-0.09-0.09c0.13,0.17,0.26,0.34,0.39,0.51c-0.03-0.04-0.05-0.08-0.07-0.12
			c0.08,0.2,0.17,0.4,0.25,0.6c-0.1-0.24-0.13-0.51-0.16-0.77c0.03,0.22,0.06,0.44,0.09,0.66c-0.11-0.89-0.03-1.79-0.49-2.61
			c-0.91-1.63-3.26-1.9-4.53-0.55c-0.64,0.68-0.92,1.55-1.23,2.41c-0.21,0.59-0.41,1.19-0.59,1.79c-0.18,0.61-0.07,1.38,0.25,1.93
			c0.3,0.52,0.9,1.01,1.49,1.15c1.34,0.31,2.68-0.4,3.08-1.75c0.27-0.91,0.58-1.81,0.93-2.7c-0.08,0.2-0.17,0.4-0.25,0.6
			c0.05-0.11,0.11-0.22,0.18-0.32c-0.13,0.17-0.26,0.34-0.39,0.51c0.05-0.06,0.09-0.1,0.15-0.15c-0.17,0.13-0.34,0.26-0.51,0.39
			c0.03-0.03,0.07-0.05,0.11-0.06c-0.2,0.08-0.4,0.17-0.6,0.25c0.02-0.01,0.04-0.01,0.06-0.02c-0.22,0.03-0.44,0.06-0.66,0.09
			c0.04-0.01,0.08-0.01,0.12,0c-0.22-0.03-0.44-0.06-0.66-0.09c0.02,0.01,0.04,0.01,0.06,0.02c-0.2-0.08-0.4-0.17-0.6-0.25
			c0.02,0.01,0.04,0.02,0.06,0.03c-0.17-0.13-0.34-0.26-0.51-0.39c0.03,0.02,0.06,0.05,0.09,0.09c-0.13-0.17-0.26-0.34-0.39-0.51
			c0.01,0.02,0.02,0.04,0.03,0.05c-0.08-0.2-0.17-0.4-0.25-0.6c0.04,0.09,0.06,0.17,0.07,0.26c-0.03-0.22-0.06-0.44-0.09-0.66
			c0.1,1.05,0.07,2.16,0.58,3.12c0.59,1.11,1.92,1.71,3.15,1.39c0.74-0.2,1.23-0.69,1.72-1.23c0.27-0.29,0.53-0.58,0.8-0.88
			c0.24-0.27,0.47-0.54,0.68-0.84c0.2-0.29,0.32-0.61,0.45-0.95c0.27-0.71,0.38-1.49,0.66-2.2c-0.08,0.2-0.17,0.4-0.25,0.6
			c0.02-0.04,0.04-0.08,0.07-0.12c-0.13,0.17-0.26,0.34-0.39,0.51c0.01-0.02,0.03-0.03,0.04-0.05c-0.17,0.13-0.34,0.26-0.51,0.39
			c0.02-0.01,0.03-0.03,0.05-0.04c-0.2,0.08-0.4,0.17-0.6,0.25c0.02-0.01,0.04-0.02,0.06-0.02c-0.22,0.03-0.44,0.06-0.66,0.09
			c0.02,0,0.04,0,0.06-0.01c0.67-0.06,1.28-0.24,1.77-0.73c0.43-0.43,0.76-1.15,0.73-1.77c-0.03-0.65-0.24-1.32-0.73-1.77
			C333.82,193.07,333.17,192.71,332.52,192.76L332.52,192.76z"/>
	</g>
</g>
<g>
	<g>
		<path class="st3" d="M327.4,194.58c-2.69,2.78-3.67,6.5-3.95,10.26c-0.27,3.68-0.4,7.64,1.21,11.05c0.58,1.22,2.33,1.54,3.42,0.9
			c1.25-0.73,1.47-2.19,0.9-3.42c-0.52-1.11-0.6-2.35-0.63-3.61c-0.04-1.52-0.01-3.05,0.08-4.56c0.16-2.63,0.75-5.26,2.5-7.08
			c0.94-0.97,0.97-2.57,0-3.54C329.99,193.64,328.34,193.61,327.4,194.58L327.4,194.58z"/>
	</g>
</g>
<g>
	<g>
		<path class="st3" d="M336.54,202.07c2.19,1.88,3.8,4.04,4.5,6.68c0.32,1.19,0.43,2.55,0.26,3.78c-0.18,1.3-0.65,2.48-1.42,3.64
			c-0.75,1.12-0.22,2.77,0.9,3.42c1.23,0.72,2.67,0.23,3.42-0.9c4.44-6.66,1.54-15.29-4.13-20.17c-1.02-0.88-2.53-1.01-3.54,0
			C335.64,199.44,335.51,201.19,336.54,202.07L336.54,202.07z"/>
	</g>
</g>
<g>
	<g>
		<path class="st3" d="M338.27,216.96c0,0.72-0.26,1.35-0.84,1.96c-0.65,0.68-1.45,1.18-2.46,1.54c-2.51,0.89-5.26,1.24-7.87,1.76
			c-1.29,0.26-2.7,0.4-3.94,0.85c-1.98,0.71-2.25,2.5-2.43,4.34c-0.28,2.92-0.03,5.88,0.6,8.74c0.29,1.32,1.82,2.09,3.08,1.75
			c1.36-0.37,2.04-1.75,1.75-3.08c-0.31-1.4-0.49-2.8-0.53-4.24c-0.02-0.71-0.01-1.41,0.03-2.12c0.02-0.35,0.05-0.71,0.08-1.06
			c0.02-0.23,0.05-0.47,0.08-0.7c0.01,0.07-0.01,0.14-0.05,0.2c-0.3,0.3-0.6,0.6-0.9,0.9c-0.12,0.09,0.03-0.04,0.18-0.09
			c0.28-0.09,0.6-0.12,0.89-0.18c0.48-0.1,0.95-0.19,1.43-0.29c1.01-0.2,2.02-0.41,3.04-0.61c1.92-0.39,3.89-0.69,5.75-1.32
			c3.73-1.26,7.1-4.15,7.12-8.37C343.29,213.74,338.29,213.73,338.27,216.96L338.27,216.96z"/>
	</g>
</g>
<g>
	<g>
		<path class="st3" d="M257.43,202.15c0.47,0.8,0.95,1.6,1.42,2.4c0.16,0.29,0.37,0.53,0.64,0.7c0.24,0.22,0.52,0.37,0.85,0.45
			c0.33,0.1,0.66,0.12,1,0.04c0.33-0.02,0.64-0.11,0.93-0.3c0.17-0.13,0.34-0.26,0.51-0.39c0.31-0.31,0.52-0.68,0.64-1.1
			c0.03-0.22,0.06-0.44,0.09-0.66c0-0.45-0.12-0.87-0.34-1.26c-0.47-0.8-0.95-1.6-1.42-2.4c-0.16-0.29-0.37-0.53-0.64-0.7
			c-0.24-0.22-0.52-0.37-0.85-0.45c-0.33-0.1-0.66-0.12-1-0.04c-0.33,0.02-0.64,0.11-0.93,0.3c-0.17,0.13-0.34,0.26-0.51,0.39
			c-0.31,0.31-0.52,0.68-0.64,1.1c-0.03,0.22-0.06,0.44-0.09,0.66C257.09,201.33,257.2,201.76,257.43,202.15L257.43,202.15z"/>
	</g>
</g>
<g>
	<g>
		<path class="st3" d="M258.9,203.51c1,0.75,0.94,2.59,0.93,3.68c-0.02,1.76-0.1,3.51-0.04,5.28c0.13,3.76,0.56,7.52,0.51,11.28
			c-0.04,3.34-0.47,6.73-1.94,9.76c-1.25,2.58-2.77,5.5-5.46,6.81c-1.21,0.59-1.54,2.32-0.9,3.42c0.72,1.24,2.2,1.49,3.42,0.9
			c3.38-1.65,5.54-5.13,7.15-8.39c1.93-3.91,2.67-8.15,2.72-12.49c0.06-4.34-0.52-8.66-0.55-12.99c-0.03-4.33,0.55-8.65-3.33-11.57
			c-1.08-0.81-2.79-0.17-3.42,0.9C257.26,201.37,257.82,202.7,258.9,203.51L258.9,203.51z"/>
	</g>
</g>
<g>
	<g>
		<path class="st3" d="M332.53,198.7c-0.52,2.62-0.07,5.32,0.15,7.95c0.23,2.71,0.4,5.43,0.69,8.13c0.27,2.51,1.14,4.87,1.48,7.36
			c0.37,2.69,0.25,5.45,0.17,8.16c1.64-0.22,3.27-0.44,4.91-0.66c-1.44-8.27,1.09-16.63,3.9-24.33c-1.64-0.22-3.27-0.44-4.91-0.66
			c0.34,4.61,0.24,9.23-0.32,13.82c1.55-0.42,3.11-0.84,4.66-1.26c-1.1-2.26-1.39-4.83-1.62-7.3c-0.28-2.98-0.53-5.96-0.8-8.94
			c-0.29-3.2-4.75-3.23-5,0c-0.29,3.77-0.58,7.55-0.87,11.32c-0.1,1.35,1.22,2.5,2.5,2.5c1.44,0,2.4-1.15,2.5-2.5
			c0.29-3.77,0.58-7.55,0.87-11.32c-1.67,0-3.33,0-5,0c0.29,3.27,0.55,6.54,0.88,9.8c0.32,3.12,0.84,6.12,2.22,8.96
			c0.48,0.98,1.82,1.43,2.82,1.15c1.15-0.32,1.7-1.3,1.84-2.41c0.56-4.59,0.67-9.21,0.32-13.82c-0.21-2.85-3.93-3.35-4.91-0.66
			c-3.15,8.66-5.51,17.74-3.9,26.98c0.5,2.86,4.83,2.05,4.91-0.66c0.08-2.59,0.15-5.2-0.13-7.79c-0.27-2.49-1.1-4.81-1.47-7.27
			c-0.37-2.51-0.45-5.1-0.66-7.63c-0.11-1.36-0.23-2.72-0.34-4.08c-0.09-1.14-0.3-2.37-0.07-3.5c0.26-1.32-0.38-2.7-1.75-3.08
			C334.37,196.62,332.79,197.37,332.53,198.7L332.53,198.7z"/>
	</g>
</g>
<g>
	<g>
		<path class="st3" d="M329.55,200.85c-4.08,10.78-5.84,20.32-3.4,31.73c1.48,6.92,12.09,3.99,10.61-2.92
			c-2.03-9.48,0.04-17.01,3.4-25.88C342.67,197.15,332.04,194.28,329.55,200.85L329.55,200.85z"/>
	</g>
</g>
<g>
	<g>
		<path class="st3" d="M325.35,204.83c-4.33,11.84-7.51,26.66,4.81,34.82c5.92,3.92,11.44-5.6,5.55-9.5
			c-7.1-4.7-1.96-16.37,0.24-22.4C338.39,201.1,327.76,198.22,325.35,204.83L325.35,204.83z"/>
	</g>
</g>
<g>
	<g>
		<path class="st3" d="M323.62,204.45c-2.04,5.42-2.93,11.28-2.6,17.06c0.07,1.3,1.1,2.56,2.5,2.5c1.29-0.06,2.58-1.1,2.5-2.5
			c-0.31-5.47,0.47-10.57,2.42-15.73c0.46-1.23-0.51-2.79-1.75-3.08C325.28,202.38,324.12,203.13,323.62,204.45L323.62,204.45z"/>
	</g>
</g>
<g>
	<g>
		<path class="st53" d="M249.14,234.75c0,0.18-0.07,0.35-0.2,0.49c-0.14,0.15-0.36,0.27-0.67,0.36s-0.73,0.16-1.26,0.22
			c-0.52,0.05-1.18,0.08-1.98,0.08c-0.82,0-1.49-0.03-2.02-0.08c-0.53-0.06-0.95-0.13-1.26-0.22s-0.52-0.21-0.66-0.36
			c-0.14-0.15-0.2-0.31-0.2-0.49v-14.37h-15.19v14.37c0,0.18-0.06,0.35-0.19,0.49c-0.13,0.15-0.35,0.27-0.66,0.36
			c-0.31,0.09-0.73,0.16-1.26,0.22c-0.52,0.05-1.19,0.08-2.01,0.08c-0.8,0-1.46-0.03-1.99-0.08c-0.53-0.06-0.96-0.13-1.27-0.22
			s-0.54-0.21-0.68-0.36c-0.14-0.15-0.2-0.31-0.2-0.49v-33.58c0-0.18,0.07-0.35,0.2-0.49c0.14-0.15,0.36-0.27,0.68-0.36
			s0.74-0.17,1.27-0.22c0.53-0.05,1.2-0.08,1.99-0.08c0.82,0,1.49,0.03,2.01,0.08c0.52,0.06,0.94,0.13,1.26,0.22
			c0.31,0.09,0.53,0.21,0.66,0.36c0.13,0.15,0.19,0.31,0.19,0.49v13.05h15.19v-13.05c0-0.18,0.07-0.35,0.2-0.49
			c0.14-0.15,0.36-0.27,0.66-0.36s0.72-0.17,1.26-0.22c0.53-0.05,1.21-0.08,2.02-0.08c0.79,0,1.45,0.03,1.98,0.08
			c0.52,0.06,0.94,0.13,1.26,0.22s0.54,0.21,0.67,0.36c0.14,0.15,0.2,0.31,0.2,0.49V234.75z"/>
		<path class="st53" d="M245.02,236.9c-0.84,0-1.56-0.03-2.13-0.09c-0.61-0.06-1.08-0.15-1.44-0.26c-0.48-0.15-0.84-0.35-1.1-0.63
			c-0.31-0.33-0.47-0.74-0.47-1.17v-13.37h-13.19v13.37c0,0.42-0.15,0.82-0.43,1.15c-0.26,0.3-0.63,0.52-1.14,0.67
			c-0.37,0.11-0.84,0.19-1.43,0.25c-0.56,0.06-1.27,0.09-2.11,0.09c-0.82,0-1.53-0.03-2.1-0.09c-0.6-0.06-1.08-0.15-1.45-0.25
			c-0.5-0.15-0.86-0.35-1.13-0.64c-0.31-0.33-0.47-0.74-0.47-1.17v-33.58c0-0.44,0.16-0.84,0.47-1.17c0.27-0.29,0.63-0.49,1.13-0.64
			c0.38-0.11,0.85-0.19,1.45-0.25c0.57-0.06,1.27-0.09,2.1-0.09c0.86,0,1.55,0.03,2.11,0.09c0.59,0.06,1.06,0.15,1.43,0.26
			c0.51,0.15,0.88,0.36,1.14,0.66c0.28,0.33,0.43,0.73,0.43,1.15v12.05h13.19v-12.05c0-0.44,0.16-0.84,0.47-1.17
			c0.26-0.28,0.62-0.49,1.1-0.63c0.37-0.11,0.84-0.2,1.44-0.26c0.57-0.06,1.28-0.09,2.13-0.09c0.83,0,1.53,0.03,2.08,0.09
			c0.59,0.06,1.06,0.15,1.43,0.25c0.49,0.14,0.86,0.35,1.13,0.63c0.31,0.33,0.47,0.74,0.47,1.18v33.58c0,0.44-0.16,0.84-0.47,1.18
			c-0.26,0.28-0.63,0.49-1.13,0.64c-0.37,0.11-0.84,0.19-1.43,0.25C246.55,236.87,245.85,236.9,245.02,236.9z M241.88,234.59
			c0.04,0.01,0.08,0.03,0.15,0.05c0.16,0.05,0.48,0.12,1.07,0.18c0.5,0.05,1.15,0.08,1.92,0.08c0.75,0,1.38-0.03,1.87-0.08
			c0.46-0.05,0.83-0.11,1.08-0.19c0.07-0.02,0.12-0.04,0.16-0.06v-33.26c-0.04-0.01-0.09-0.03-0.16-0.05
			c-0.25-0.07-0.62-0.14-1.08-0.19c-0.49-0.05-1.12-0.08-1.87-0.08c-0.78,0-1.43,0.03-1.92,0.08c-0.58,0.06-0.9,0.13-1.07,0.18
			c-0.07,0.02-0.12,0.04-0.15,0.05v13.89h-17.19v-13.9c-0.03-0.01-0.07-0.03-0.13-0.04c-0.25-0.07-0.62-0.14-1.08-0.19
			c-0.49-0.05-1.13-0.08-1.9-0.08c-0.76,0-1.39,0.03-1.89,0.08c-0.47,0.05-0.84,0.11-1.09,0.19c-0.07,0.02-0.12,0.04-0.16,0.06
			v33.26c0.04,0.02,0.09,0.03,0.16,0.05c0.25,0.07,0.62,0.14,1.09,0.19c0.5,0.05,1.14,0.08,1.89,0.08c0.77,0,1.42-0.03,1.9-0.08
			c0.46-0.05,0.83-0.11,1.08-0.18c0.05-0.02,0.1-0.03,0.13-0.04v-15.22h17.19V234.59z"/>
	</g>
	<g>
		<path class="st53" d="M299.93,217.54c0,2.95-0.42,5.59-1.26,7.91c-0.84,2.33-2.08,4.3-3.74,5.92c-1.65,1.62-3.7,2.86-6.14,3.71
			c-2.44,0.85-5.26,1.28-8.46,1.28c-3.16,0-5.92-0.36-8.27-1.09c-2.35-0.72-4.32-1.83-5.89-3.31c-1.57-1.48-2.75-3.37-3.53-5.66
			c-0.78-2.29-1.18-5-1.18-8.13c0-2.88,0.42-5.46,1.26-7.76c0.84-2.3,2.08-4.26,3.74-5.87c1.65-1.61,3.7-2.85,6.14-3.71
			c2.44-0.86,5.27-1.29,8.49-1.29c3.08,0,5.79,0.36,8.15,1.07c2.35,0.71,4.32,1.81,5.9,3.3c1.58,1.48,2.77,3.36,3.58,5.62
			S299.93,214.47,299.93,217.54z M291.26,217.93c0-1.87-0.17-3.57-0.5-5.1c-0.34-1.53-0.91-2.84-1.71-3.93
			c-0.81-1.09-1.88-1.93-3.22-2.53c-1.34-0.6-3.01-0.89-5.02-0.89c-2.03,0-3.73,0.33-5.08,1c-1.36,0.67-2.46,1.56-3.3,2.68
			s-1.43,2.42-1.77,3.92c-0.35,1.49-0.52,3.07-0.52,4.74c0,1.94,0.17,3.69,0.5,5.24c0.33,1.55,0.9,2.87,1.7,3.97
			c0.79,1.1,1.86,1.94,3.2,2.51c1.34,0.58,3.02,0.87,5.05,0.87s3.72-0.33,5.09-0.99c1.36-0.66,2.46-1.56,3.3-2.69
			c0.84-1.14,1.43-2.46,1.77-3.97C291.09,221.24,291.26,219.63,291.26,217.93z"/>
		<path class="st53" d="M280.34,237.37c-3.24,0-6.13-0.38-8.57-1.13c-2.49-0.77-4.6-1.96-6.28-3.54c-1.68-1.59-2.96-3.63-3.79-6.06
			c-0.82-2.38-1.23-5.23-1.23-8.46c0-2.98,0.44-5.71,1.32-8.11c0.88-2.43,2.22-4.53,3.98-6.24c1.75-1.71,3.94-3.03,6.5-3.94
			c2.53-0.9,5.5-1.35,8.82-1.35c3.16,0,6,0.38,8.44,1.11c2.49,0.76,4.61,1.94,6.3,3.53c1.69,1.59,2.98,3.61,3.84,6.01
			c0.84,2.36,1.27,5.17,1.27,8.35c0,3.05-0.44,5.83-1.31,8.25c-0.89,2.46-2.22,4.58-3.98,6.3c-1.75,1.72-3.94,3.04-6.51,3.94
			C286.6,236.92,283.64,237.37,280.34,237.37z M281.09,200.54c-3.09,0-5.84,0.42-8.16,1.23c-2.29,0.81-4.23,1.98-5.77,3.48
			c-1.54,1.5-2.71,3.35-3.49,5.49c-0.79,2.18-1.2,4.68-1.2,7.42c0,3.01,0.38,5.64,1.12,7.81c0.73,2.12,1.83,3.89,3.27,5.26
			c1.45,1.37,3.3,2.41,5.49,3.08c2.25,0.69,4.93,1.04,7.98,1.04c3.07,0,5.81-0.41,8.13-1.22c2.29-0.8,4.23-1.97,5.77-3.48
			c1.54-1.51,2.71-3.37,3.49-5.55c0.79-2.21,1.2-4.76,1.2-7.58c0-2.95-0.39-5.53-1.15-7.68c-0.75-2.1-1.87-3.86-3.32-5.23
			c-1.46-1.37-3.31-2.4-5.51-3.07C286.7,200.89,284.06,200.54,281.09,200.54z M280.59,231.41c-2.16,0-3.99-0.32-5.45-0.95
			c-1.5-0.65-2.72-1.6-3.62-2.85c-0.87-1.21-1.5-2.67-1.86-4.35c-0.35-1.61-0.52-3.44-0.52-5.45c0-1.73,0.18-3.4,0.54-4.97
			c0.38-1.62,1.03-3.07,1.95-4.29c0.93-1.24,2.16-2.24,3.66-2.98c1.49-0.73,3.35-1.11,5.53-1.11c2.14,0,3.97,0.33,5.43,0.98
			c1.49,0.66,2.71,1.62,3.62,2.85c0.89,1.2,1.52,2.65,1.88,4.31c0.35,1.59,0.53,3.38,0.53,5.31c0,1.77-0.18,3.47-0.54,5.05
			c-0.37,1.64-1.03,3.1-1.94,4.34c-0.93,1.26-2.16,2.27-3.66,3C284.62,231.04,282.76,231.41,280.59,231.41z M280.81,206.48
			c-1.87,0-3.43,0.3-4.64,0.9c-1.21,0.6-2.2,1.4-2.94,2.38c-0.75,1-1.29,2.19-1.6,3.54c-0.33,1.41-0.49,2.93-0.49,4.52
			c0,1.86,0.16,3.55,0.48,5.02c0.3,1.41,0.82,2.61,1.53,3.6c0.69,0.96,1.61,1.67,2.79,2.18c1.21,0.52,2.77,0.78,4.66,0.78
			c1.87,0,3.43-0.3,4.65-0.89c1.21-0.58,2.19-1.39,2.93-2.39c0.75-1.02,1.29-2.23,1.6-3.6c0.33-1.43,0.49-2.98,0.49-4.6
			c0-1.79-0.16-3.43-0.48-4.88c-0.3-1.38-0.82-2.58-1.54-3.55c-0.7-0.94-1.65-1.69-2.82-2.21
			C284.22,206.75,282.67,206.48,280.81,206.48z"/>
	</g>
	<g>
		<path class="st53" d="M340.08,210.98c0,2-0.36,3.77-1.07,5.3c-0.71,1.54-1.75,2.84-3.11,3.89c-1.36,1.05-3.03,1.85-5.01,2.4
			c-1.98,0.55-4.31,0.82-6.98,0.82h-3.39v11.35c0,0.18-0.07,0.35-0.2,0.49c-0.14,0.15-0.36,0.27-0.67,0.36
			c-0.31,0.09-0.73,0.16-1.26,0.22c-0.52,0.05-1.19,0.08-2.01,0.08c-0.8,0-1.46-0.03-1.99-0.08c-0.53-0.06-0.96-0.13-1.27-0.22
			c-0.31-0.09-0.53-0.21-0.66-0.36c-0.13-0.15-0.19-0.31-0.19-0.49v-31.99c0-0.86,0.26-1.51,0.77-1.94
			c0.51-0.43,1.19-0.65,2.02-0.65h9.57c0.96,0,1.88,0.03,2.75,0.1c0.87,0.06,1.91,0.2,3.12,0.41c1.21,0.21,2.44,0.6,3.69,1.17
			s2.31,1.29,3.19,2.16s1.55,1.89,2.01,3.05C339.85,208.22,340.08,209.53,340.08,210.98z M331.44,211.5c0-1.25-0.25-2.27-0.75-3.08
			c-0.5-0.81-1.12-1.4-1.85-1.79s-1.5-0.63-2.31-0.73c-0.81-0.1-1.64-0.15-2.5-0.15h-3.52v12.06h3.7c1.32,0,2.42-0.16,3.31-0.47
			s1.62-0.75,2.18-1.31c0.57-0.56,0.99-1.23,1.29-2.01C331.3,213.26,331.44,212.41,331.44,211.5z"/>
		<path class="st53" d="M316.38,236.9c-0.82,0-1.53-0.03-2.09-0.09c-0.6-0.06-1.08-0.15-1.45-0.25c-0.51-0.15-0.88-0.37-1.14-0.67
			c-0.28-0.33-0.43-0.73-0.43-1.15v-31.99c0-1.17,0.38-2.08,1.13-2.7c0.7-0.58,1.59-0.88,2.67-0.88h9.57c0.98,0,1.93,0.03,2.82,0.1
			c0.9,0.07,1.98,0.21,3.22,0.42c1.29,0.22,2.62,0.64,3.93,1.24c1.35,0.61,2.51,1.41,3.47,2.36c0.97,0.96,1.73,2.1,2.24,3.39
			c0.5,1.28,0.76,2.72,0.76,4.28c0,2.13-0.39,4.06-1.16,5.72c-0.78,1.68-1.92,3.11-3.4,4.26c-1.46,1.13-3.26,2-5.35,2.58
			c-2.06,0.57-4.5,0.86-7.25,0.86h-2.39v10.35c0,0.44-0.16,0.84-0.47,1.17c-0.26,0.28-0.63,0.49-1.13,0.64
			c-0.37,0.11-0.84,0.19-1.43,0.25C317.93,236.87,317.22,236.9,316.38,236.9z M313.26,234.6c0.03,0.01,0.07,0.03,0.13,0.04
			c0.25,0.07,0.62,0.14,1.09,0.18c0.5,0.05,1.14,0.08,1.89,0.08c0.77,0,1.42-0.03,1.91-0.08c0.46-0.05,0.83-0.11,1.08-0.18
			c0.07-0.02,0.12-0.04,0.16-0.06V222.4h4.39c2.58,0,4.83-0.27,6.72-0.79c1.84-0.51,3.41-1.26,4.66-2.23
			c1.23-0.95,2.17-2.13,2.81-3.52c0.65-1.4,0.97-3.04,0.97-4.88c0-1.31-0.21-2.51-0.62-3.55c-0.41-1.03-1.01-1.94-1.78-2.71
			c-0.79-0.78-1.77-1.44-2.9-1.96c-1.16-0.53-2.32-0.9-3.44-1.09c-1.18-0.2-2.2-0.34-3.03-0.4c-0.84-0.06-1.74-0.09-2.67-0.09h-9.57
			c-0.6,0-1.05,0.13-1.38,0.41c-0.1,0.09-0.41,0.35-0.41,1.17V234.6z M324.22,218.82h-4.7v-14.06h4.52c0.89,0,1.78,0.05,2.62,0.16
			c0.92,0.12,1.81,0.4,2.65,0.84c0.89,0.47,1.64,1.19,2.24,2.14c0.6,0.96,0.9,2.18,0.9,3.61c0,1.03-0.17,2.01-0.5,2.89
			c-0.34,0.91-0.85,1.71-1.52,2.37c-0.67,0.66-1.53,1.18-2.55,1.54C326.88,218.64,325.65,218.82,324.22,218.82z M321.52,216.82h2.7
			c1.2,0,2.2-0.14,2.98-0.41c0.75-0.26,1.35-0.62,1.81-1.07c0.47-0.46,0.81-1,1.06-1.65c0.25-0.66,0.38-1.4,0.38-2.19
			c0-1.05-0.2-1.91-0.6-2.55c-0.41-0.66-0.89-1.13-1.47-1.43c-0.62-0.33-1.28-0.54-1.97-0.62c-0.76-0.09-1.56-0.14-2.37-0.14h-2.52
			V216.82z"/>
	</g>
	<g>
		<path class="st53" d="M375.96,232.91c0,0.53-0.03,0.98-0.08,1.33c-0.05,0.36-0.13,0.65-0.24,0.87c-0.1,0.22-0.24,0.38-0.39,0.48
			c-0.16,0.1-0.33,0.15-0.52,0.15h-20.4c-0.69,0-1.27-0.18-1.74-0.54c-0.47-0.36-0.71-0.94-0.71-1.74v-31
			c0-0.81,0.24-1.39,0.71-1.75c0.47-0.36,1.05-0.54,1.74-0.54h20.28c0.19,0,0.36,0.05,0.5,0.14c0.15,0.09,0.27,0.25,0.38,0.48
			s0.18,0.52,0.24,0.88c0.05,0.36,0.08,0.81,0.08,1.36c0,0.51-0.03,0.95-0.08,1.31c-0.05,0.36-0.13,0.65-0.24,0.87
			s-0.23,0.38-0.38,0.48c-0.15,0.1-0.31,0.15-0.5,0.15h-14.5v8.68h12.27c0.19,0,0.36,0.05,0.52,0.15c0.16,0.1,0.29,0.26,0.39,0.47
			c0.1,0.21,0.18,0.49,0.24,0.85c0.05,0.36,0.08,0.79,0.08,1.31c0,0.53-0.03,0.97-0.08,1.32c-0.05,0.35-0.13,0.63-0.24,0.84
			s-0.24,0.36-0.39,0.45c-0.16,0.09-0.33,0.14-0.52,0.14h-12.27v10.03h14.63c0.19,0,0.36,0.05,0.52,0.15
			c0.16,0.1,0.29,0.26,0.39,0.48c0.1,0.22,0.18,0.51,0.24,0.87C375.93,231.93,375.96,232.38,375.96,232.91z"/>
		<path class="st53" d="M374.73,236.74h-20.4c-0.91,0-1.7-0.25-2.35-0.74c-0.5-0.38-1.1-1.13-1.1-2.54v-31c0-1.41,0.6-2.16,1.1-2.54
			c0.65-0.49,1.43-0.74,2.35-0.74h20.28c0.38,0,0.73,0.1,1.03,0.29c0.32,0.2,0.57,0.51,0.75,0.91c0.15,0.32,0.25,0.69,0.32,1.15
			c0.06,0.41,0.09,0.9,0.09,1.51c0,0.56-0.03,1.04-0.09,1.45c-0.07,0.46-0.17,0.84-0.32,1.15c-0.18,0.38-0.42,0.67-0.71,0.87
			c-0.31,0.22-0.68,0.33-1.07,0.33h-13.5v6.68h11.27c0.38,0,0.74,0.1,1.06,0.31c0.32,0.2,0.57,0.49,0.75,0.87
			c0.15,0.31,0.26,0.69,0.33,1.15c0.06,0.41,0.09,0.9,0.09,1.45c0,0.58-0.03,1.06-0.09,1.47c-0.07,0.46-0.18,0.83-0.33,1.14
			c-0.19,0.39-0.46,0.68-0.78,0.87c-0.31,0.18-0.66,0.27-1.02,0.27h-11.27v8.03h13.63c0.38,0,0.74,0.1,1.06,0.31
			c0.32,0.2,0.57,0.5,0.76,0.89c0.15,0.32,0.25,0.69,0.32,1.15c0.06,0.41,0.09,0.89,0.09,1.48s-0.03,1.07-0.09,1.48
			c-0.07,0.46-0.17,0.83-0.32,1.15c-0.19,0.39-0.44,0.69-0.76,0.9C375.47,236.63,375.12,236.74,374.73,236.74z M354.33,201.18
			c-0.47,0-0.84,0.11-1.14,0.33c-0.08,0.06-0.31,0.24-0.31,0.95v31c0,0.71,0.23,0.89,0.31,0.95c0.3,0.22,0.67,0.33,1.14,0.33h20.4
			c0.04-0.13,0.11-0.31,0.16-0.64c0.04-0.31,0.07-0.71,0.07-1.19s-0.02-0.88-0.07-1.19c-0.05-0.34-0.11-0.51-0.15-0.58l-15.63-0.06
			v-12.03h13.27c0.05-0.1,0.11-0.26,0.16-0.58c0.04-0.3,0.07-0.69,0.07-1.17c0-0.46-0.02-0.85-0.07-1.16
			c-0.05-0.33-0.11-0.49-0.14-0.55l-13.29-0.06v-10.68h15.45c0.01-0.01,0.02-0.03,0.03-0.06c0.04-0.07,0.1-0.25,0.15-0.58
			c0.04-0.31,0.07-0.7,0.07-1.16c0-0.5-0.02-0.91-0.07-1.22c-0.05-0.32-0.11-0.51-0.16-0.61c0-0.01-0.01-0.02-0.02-0.03
			L354.33,201.18z"/>
	</g>
</g>
<g>
	<g>
		<path class="st54" d="M249.14,234.75c0,0.18-0.07,0.35-0.2,0.49c-0.14,0.15-0.36,0.27-0.67,0.36s-0.73,0.16-1.26,0.22
			c-0.52,0.05-1.18,0.08-1.98,0.08c-0.82,0-1.49-0.03-2.02-0.08c-0.53-0.06-0.95-0.13-1.26-0.22s-0.52-0.21-0.66-0.36
			c-0.14-0.15-0.2-0.31-0.2-0.49v-14.37h-15.19v14.37c0,0.18-0.06,0.35-0.19,0.49c-0.13,0.15-0.35,0.27-0.66,0.36
			c-0.31,0.09-0.73,0.16-1.26,0.22c-0.52,0.05-1.19,0.08-2.01,0.08c-0.8,0-1.46-0.03-1.99-0.08c-0.53-0.06-0.96-0.13-1.27-0.22
			s-0.54-0.21-0.68-0.36c-0.14-0.15-0.2-0.31-0.2-0.49v-33.58c0-0.18,0.07-0.35,0.2-0.49c0.14-0.15,0.36-0.27,0.68-0.36
			s0.74-0.17,1.27-0.22c0.53-0.05,1.2-0.08,1.99-0.08c0.82,0,1.49,0.03,2.01,0.08c0.52,0.06,0.94,0.13,1.26,0.22
			c0.31,0.09,0.53,0.21,0.66,0.36c0.13,0.15,0.19,0.31,0.19,0.49v13.05h15.19v-13.05c0-0.18,0.07-0.35,0.2-0.49
			c0.14-0.15,0.36-0.27,0.66-0.36s0.72-0.17,1.26-0.22c0.53-0.05,1.21-0.08,2.02-0.08c0.79,0,1.45,0.03,1.98,0.08
			c0.52,0.06,0.94,0.13,1.26,0.22s0.54,0.21,0.67,0.36c0.14,0.15,0.2,0.31,0.2,0.49V234.75z"/>
		<path class="st54" d="M245.02,236.9c-0.84,0-1.56-0.03-2.13-0.09c-0.61-0.06-1.08-0.15-1.44-0.26c-0.48-0.15-0.84-0.35-1.1-0.63
			c-0.31-0.33-0.47-0.74-0.47-1.17v-13.37h-13.19v13.37c0,0.42-0.15,0.82-0.43,1.15c-0.26,0.3-0.63,0.52-1.14,0.67
			c-0.37,0.11-0.84,0.19-1.43,0.25c-0.56,0.06-1.27,0.09-2.11,0.09c-0.82,0-1.53-0.03-2.1-0.09c-0.6-0.06-1.08-0.15-1.45-0.25
			c-0.5-0.15-0.86-0.35-1.13-0.64c-0.31-0.33-0.47-0.74-0.47-1.17v-33.58c0-0.44,0.16-0.84,0.47-1.17c0.27-0.29,0.63-0.49,1.13-0.64
			c0.38-0.11,0.85-0.19,1.45-0.25c0.57-0.06,1.27-0.09,2.1-0.09c0.86,0,1.55,0.03,2.11,0.09c0.59,0.06,1.06,0.15,1.43,0.26
			c0.51,0.15,0.88,0.36,1.14,0.66c0.28,0.33,0.43,0.73,0.43,1.15v12.05h13.19v-12.05c0-0.44,0.16-0.84,0.47-1.17
			c0.26-0.28,0.62-0.49,1.1-0.63c0.37-0.11,0.84-0.2,1.44-0.26c0.57-0.06,1.28-0.09,2.13-0.09c0.83,0,1.53,0.03,2.08,0.09
			c0.59,0.06,1.06,0.15,1.43,0.25c0.49,0.14,0.86,0.35,1.13,0.63c0.31,0.33,0.47,0.74,0.47,1.18v33.58c0,0.44-0.16,0.84-0.47,1.18
			c-0.26,0.28-0.63,0.49-1.13,0.64c-0.37,0.11-0.84,0.19-1.43,0.25C246.55,236.87,245.85,236.9,245.02,236.9z M241.88,234.59
			c0.04,0.01,0.08,0.03,0.15,0.05c0.16,0.05,0.48,0.12,1.07,0.18c0.5,0.05,1.15,0.08,1.92,0.08c0.75,0,1.38-0.03,1.87-0.08
			c0.46-0.05,0.83-0.11,1.08-0.19c0.07-0.02,0.12-0.04,0.16-0.06v-33.26c-0.04-0.01-0.09-0.03-0.16-0.05
			c-0.25-0.07-0.62-0.14-1.08-0.19c-0.49-0.05-1.12-0.08-1.87-0.08c-0.78,0-1.43,0.03-1.92,0.08c-0.58,0.06-0.9,0.13-1.07,0.18
			c-0.07,0.02-0.12,0.04-0.15,0.05v13.89h-17.19v-13.9c-0.03-0.01-0.07-0.03-0.13-0.04c-0.25-0.07-0.62-0.14-1.08-0.19
			c-0.49-0.05-1.13-0.08-1.9-0.08c-0.76,0-1.39,0.03-1.89,0.08c-0.47,0.05-0.84,0.11-1.09,0.19c-0.07,0.02-0.12,0.04-0.16,0.06
			v33.26c0.04,0.02,0.09,0.03,0.16,0.05c0.25,0.07,0.62,0.14,1.09,0.19c0.5,0.05,1.14,0.08,1.89,0.08c0.77,0,1.42-0.03,1.9-0.08
			c0.46-0.05,0.83-0.11,1.08-0.18c0.05-0.02,0.1-0.03,0.13-0.04v-15.22h17.19V234.59z"/>
	</g>
	<g>
		<path class="st54" d="M299.93,217.54c0,2.95-0.42,5.59-1.26,7.91c-0.84,2.33-2.08,4.3-3.74,5.92c-1.65,1.62-3.7,2.86-6.14,3.71
			c-2.44,0.85-5.26,1.28-8.46,1.28c-3.16,0-5.92-0.36-8.27-1.09c-2.35-0.72-4.32-1.83-5.89-3.31c-1.57-1.48-2.75-3.37-3.53-5.66
			c-0.78-2.29-1.18-5-1.18-8.13c0-2.88,0.42-5.46,1.26-7.76c0.84-2.3,2.08-4.26,3.74-5.87c1.65-1.61,3.7-2.85,6.14-3.71
			c2.44-0.86,5.27-1.29,8.49-1.29c3.08,0,5.79,0.36,8.15,1.07c2.35,0.71,4.32,1.81,5.9,3.3c1.58,1.48,2.77,3.36,3.58,5.62
			S299.93,214.47,299.93,217.54z M291.26,217.93c0-1.87-0.17-3.57-0.5-5.1c-0.34-1.53-0.91-2.84-1.71-3.93
			c-0.81-1.09-1.88-1.93-3.22-2.53c-1.34-0.6-3.01-0.89-5.02-0.89c-2.03,0-3.73,0.33-5.08,1c-1.36,0.67-2.46,1.56-3.3,2.68
			s-1.43,2.42-1.77,3.92c-0.35,1.49-0.52,3.07-0.52,4.74c0,1.94,0.17,3.69,0.5,5.24c0.33,1.55,0.9,2.87,1.7,3.97
			c0.79,1.1,1.86,1.94,3.2,2.51c1.34,0.58,3.02,0.87,5.05,0.87s3.72-0.33,5.09-0.99c1.36-0.66,2.46-1.56,3.3-2.69
			c0.84-1.14,1.43-2.46,1.77-3.97C291.09,221.24,291.26,219.63,291.26,217.93z"/>
		<path class="st54" d="M280.34,237.37c-3.24,0-6.13-0.38-8.57-1.13c-2.49-0.77-4.6-1.96-6.28-3.54c-1.68-1.59-2.96-3.63-3.79-6.06
			c-0.82-2.38-1.23-5.23-1.23-8.46c0-2.98,0.44-5.71,1.32-8.11c0.88-2.43,2.22-4.53,3.98-6.24c1.75-1.71,3.94-3.03,6.5-3.94
			c2.53-0.9,5.5-1.35,8.82-1.35c3.16,0,6,0.38,8.44,1.11c2.49,0.76,4.61,1.94,6.3,3.53c1.69,1.59,2.98,3.61,3.84,6.01
			c0.84,2.36,1.27,5.17,1.27,8.35c0,3.05-0.44,5.83-1.31,8.25c-0.89,2.46-2.22,4.58-3.98,6.3c-1.75,1.72-3.94,3.04-6.51,3.94
			C286.6,236.92,283.64,237.37,280.34,237.37z M281.09,200.54c-3.09,0-5.84,0.42-8.16,1.23c-2.29,0.81-4.23,1.98-5.77,3.48
			c-1.54,1.5-2.71,3.35-3.49,5.49c-0.79,2.18-1.2,4.68-1.2,7.42c0,3.01,0.38,5.64,1.12,7.81c0.73,2.12,1.83,3.89,3.27,5.26
			c1.45,1.37,3.3,2.41,5.49,3.08c2.25,0.69,4.93,1.04,7.98,1.04c3.07,0,5.81-0.41,8.13-1.22c2.29-0.8,4.23-1.97,5.77-3.48
			c1.54-1.51,2.71-3.37,3.49-5.55c0.79-2.21,1.2-4.76,1.2-7.58c0-2.95-0.39-5.53-1.15-7.68c-0.75-2.1-1.87-3.86-3.32-5.23
			c-1.46-1.37-3.31-2.4-5.51-3.07C286.7,200.89,284.06,200.54,281.09,200.54z M280.59,231.41c-2.16,0-3.99-0.32-5.45-0.95
			c-1.5-0.65-2.72-1.6-3.62-2.85c-0.87-1.21-1.5-2.67-1.86-4.35c-0.35-1.61-0.52-3.44-0.52-5.45c0-1.73,0.18-3.4,0.54-4.97
			c0.38-1.62,1.03-3.07,1.95-4.29c0.93-1.24,2.16-2.24,3.66-2.98c1.49-0.73,3.35-1.11,5.53-1.11c2.14,0,3.97,0.33,5.43,0.98
			c1.49,0.66,2.71,1.62,3.62,2.85c0.89,1.2,1.52,2.65,1.88,4.31c0.35,1.59,0.53,3.38,0.53,5.31c0,1.77-0.18,3.47-0.54,5.05
			c-0.37,1.64-1.03,3.1-1.94,4.34c-0.93,1.26-2.16,2.27-3.66,3C284.62,231.04,282.76,231.41,280.59,231.41z M280.81,206.48
			c-1.87,0-3.43,0.3-4.64,0.9c-1.21,0.6-2.2,1.4-2.94,2.38c-0.75,1-1.29,2.19-1.6,3.54c-0.33,1.41-0.49,2.93-0.49,4.52
			c0,1.86,0.16,3.55,0.48,5.02c0.3,1.41,0.82,2.61,1.53,3.6c0.69,0.96,1.61,1.67,2.79,2.18c1.21,0.52,2.77,0.78,4.66,0.78
			c1.87,0,3.43-0.3,4.65-0.89c1.21-0.58,2.19-1.39,2.93-2.39c0.75-1.02,1.29-2.23,1.6-3.6c0.33-1.43,0.49-2.98,0.49-4.6
			c0-1.79-0.16-3.43-0.48-4.88c-0.3-1.38-0.82-2.58-1.54-3.55c-0.7-0.94-1.65-1.69-2.82-2.21
			C284.22,206.75,282.67,206.48,280.81,206.48z"/>
	</g>
	<g>
		<path class="st54" d="M340.08,210.98c0,2-0.36,3.77-1.07,5.3c-0.71,1.54-1.75,2.84-3.11,3.89c-1.36,1.05-3.03,1.85-5.01,2.4
			c-1.98,0.55-4.31,0.82-6.98,0.82h-3.39v11.35c0,0.18-0.07,0.35-0.2,0.49c-0.14,0.15-0.36,0.27-0.67,0.36
			c-0.31,0.09-0.73,0.16-1.26,0.22c-0.52,0.05-1.19,0.08-2.01,0.08c-0.8,0-1.46-0.03-1.99-0.08c-0.53-0.06-0.96-0.13-1.27-0.22
			c-0.31-0.09-0.53-0.21-0.66-0.36c-0.13-0.15-0.19-0.31-0.19-0.49v-31.99c0-0.86,0.26-1.51,0.77-1.94
			c0.51-0.43,1.19-0.65,2.02-0.65h9.57c0.96,0,1.88,0.03,2.75,0.1c0.87,0.06,1.91,0.2,3.12,0.41c1.21,0.21,2.44,0.6,3.69,1.17
			s2.31,1.29,3.19,2.16s1.55,1.89,2.01,3.05C339.85,208.22,340.08,209.53,340.08,210.98z M331.44,211.5c0-1.25-0.25-2.27-0.75-3.08
			c-0.5-0.81-1.12-1.4-1.85-1.79s-1.5-0.63-2.31-0.73c-0.81-0.1-1.64-0.15-2.5-0.15h-3.52v12.06h3.7c1.32,0,2.42-0.16,3.31-0.47
			s1.62-0.75,2.18-1.31c0.57-0.56,0.99-1.23,1.29-2.01C331.3,213.26,331.44,212.41,331.44,211.5z"/>
		<path class="st54" d="M316.38,236.9c-0.82,0-1.53-0.03-2.09-0.09c-0.6-0.06-1.08-0.15-1.45-0.25c-0.51-0.15-0.88-0.37-1.14-0.67
			c-0.28-0.33-0.43-0.73-0.43-1.15v-31.99c0-1.17,0.38-2.08,1.13-2.7c0.7-0.58,1.59-0.88,2.67-0.88h9.57c0.98,0,1.93,0.03,2.82,0.1
			c0.9,0.07,1.98,0.21,3.22,0.42c1.29,0.22,2.62,0.64,3.93,1.24c1.35,0.61,2.51,1.41,3.47,2.36c0.97,0.96,1.73,2.1,2.24,3.39
			c0.5,1.28,0.76,2.72,0.76,4.28c0,2.13-0.39,4.06-1.16,5.72c-0.78,1.68-1.92,3.11-3.4,4.26c-1.46,1.13-3.26,2-5.35,2.58
			c-2.06,0.57-4.5,0.86-7.25,0.86h-2.39v10.35c0,0.44-0.16,0.84-0.47,1.17c-0.26,0.28-0.63,0.49-1.13,0.64
			c-0.37,0.11-0.84,0.19-1.43,0.25C317.93,236.87,317.22,236.9,316.38,236.9z M313.26,234.6c0.03,0.01,0.07,0.03,0.13,0.04
			c0.25,0.07,0.62,0.14,1.09,0.18c0.5,0.05,1.14,0.08,1.89,0.08c0.77,0,1.42-0.03,1.91-0.08c0.46-0.05,0.83-0.11,1.08-0.18
			c0.07-0.02,0.12-0.04,0.16-0.06V222.4h4.39c2.58,0,4.83-0.27,6.72-0.79c1.84-0.51,3.41-1.26,4.66-2.23
			c1.23-0.95,2.17-2.13,2.81-3.52c0.65-1.4,0.97-3.04,0.97-4.88c0-1.31-0.21-2.51-0.62-3.55c-0.41-1.03-1.01-1.94-1.78-2.71
			c-0.79-0.78-1.77-1.44-2.9-1.96c-1.16-0.53-2.32-0.9-3.44-1.09c-1.18-0.2-2.2-0.34-3.03-0.4c-0.84-0.06-1.74-0.09-2.67-0.09h-9.57
			c-0.6,0-1.05,0.13-1.38,0.41c-0.1,0.09-0.41,0.35-0.41,1.17V234.6z M324.22,218.82h-4.7v-14.06h4.52c0.89,0,1.78,0.05,2.62,0.16
			c0.92,0.12,1.81,0.4,2.65,0.84c0.89,0.47,1.64,1.19,2.24,2.14c0.6,0.96,0.9,2.18,0.9,3.61c0,1.03-0.17,2.01-0.5,2.89
			c-0.34,0.91-0.85,1.71-1.52,2.37c-0.67,0.66-1.53,1.18-2.55,1.54C326.88,218.64,325.65,218.82,324.22,218.82z M321.52,216.82h2.7
			c1.2,0,2.2-0.14,2.98-0.41c0.75-0.26,1.35-0.62,1.81-1.07c0.47-0.46,0.81-1,1.06-1.65c0.25-0.66,0.38-1.4,0.38-2.19
			c0-1.05-0.2-1.91-0.6-2.55c-0.41-0.66-0.89-1.13-1.47-1.43c-0.62-0.33-1.28-0.54-1.97-0.62c-0.76-0.09-1.56-0.14-2.37-0.14h-2.52
			V216.82z"/>
	</g>
	<g>
		<path class="st54" d="M375.96,232.91c0,0.53-0.03,0.98-0.08,1.33c-0.05,0.36-0.13,0.65-0.24,0.87c-0.1,0.22-0.24,0.38-0.39,0.48
			c-0.16,0.1-0.33,0.15-0.52,0.15h-20.4c-0.69,0-1.27-0.18-1.74-0.54c-0.47-0.36-0.71-0.94-0.71-1.74v-31
			c0-0.81,0.24-1.39,0.71-1.75c0.47-0.36,1.05-0.54,1.74-0.54h20.28c0.19,0,0.36,0.05,0.5,0.14c0.15,0.09,0.27,0.25,0.38,0.48
			s0.18,0.52,0.24,0.88c0.05,0.36,0.08,0.81,0.08,1.36c0,0.51-0.03,0.95-0.08,1.31c-0.05,0.36-0.13,0.65-0.24,0.87
			s-0.23,0.38-0.38,0.48c-0.15,0.1-0.31,0.15-0.5,0.15h-14.5v8.68h12.27c0.19,0,0.36,0.05,0.52,0.15c0.16,0.1,0.29,0.26,0.39,0.47
			c0.1,0.21,0.18,0.49,0.24,0.85c0.05,0.36,0.08,0.79,0.08,1.31c0,0.53-0.03,0.97-0.08,1.32c-0.05,0.35-0.13,0.63-0.24,0.84
			s-0.24,0.36-0.39,0.45c-0.16,0.09-0.33,0.14-0.52,0.14h-12.27v10.03h14.63c0.19,0,0.36,0.05,0.52,0.15
			c0.16,0.1,0.29,0.26,0.39,0.48c0.1,0.22,0.18,0.51,0.24,0.87C375.93,231.93,375.96,232.38,375.96,232.91z"/>
		<path class="st54" d="M374.73,236.74h-20.4c-0.91,0-1.7-0.25-2.35-0.74c-0.5-0.38-1.1-1.13-1.1-2.54v-31c0-1.41,0.6-2.16,1.1-2.54
			c0.65-0.49,1.43-0.74,2.35-0.74h20.28c0.38,0,0.73,0.1,1.03,0.29c0.32,0.2,0.57,0.51,0.75,0.91c0.15,0.32,0.25,0.69,0.32,1.15
			c0.06,0.41,0.09,0.9,0.09,1.51c0,0.56-0.03,1.04-0.09,1.45c-0.07,0.46-0.17,0.84-0.32,1.15c-0.18,0.38-0.42,0.67-0.71,0.87
			c-0.31,0.22-0.68,0.33-1.07,0.33h-13.5v6.68h11.27c0.38,0,0.74,0.1,1.06,0.31c0.32,0.2,0.57,0.49,0.75,0.87
			c0.15,0.31,0.26,0.69,0.33,1.15c0.06,0.41,0.09,0.9,0.09,1.45c0,0.58-0.03,1.06-0.09,1.47c-0.07,0.46-0.18,0.83-0.33,1.14
			c-0.19,0.39-0.46,0.68-0.78,0.87c-0.31,0.18-0.66,0.27-1.02,0.27h-11.27v8.03h13.63c0.38,0,0.74,0.1,1.06,0.31
			c0.32,0.2,0.57,0.5,0.76,0.89c0.15,0.32,0.25,0.69,0.32,1.15c0.06,0.41,0.09,0.89,0.09,1.48s-0.03,1.07-0.09,1.48
			c-0.07,0.46-0.17,0.83-0.32,1.15c-0.19,0.39-0.44,0.69-0.76,0.9C375.47,236.63,375.12,236.74,374.73,236.74z M354.33,201.18
			c-0.47,0-0.84,0.11-1.14,0.33c-0.08,0.06-0.31,0.24-0.31,0.95v31c0,0.71,0.23,0.89,0.31,0.95c0.3,0.22,0.67,0.33,1.14,0.33h20.4
			c0.04-0.13,0.11-0.31,0.16-0.64c0.04-0.31,0.07-0.71,0.07-1.19s-0.02-0.88-0.07-1.19c-0.05-0.34-0.11-0.51-0.15-0.58l-15.63-0.06
			v-12.03h13.27c0.05-0.1,0.11-0.26,0.16-0.58c0.04-0.3,0.07-0.69,0.07-1.17c0-0.46-0.02-0.85-0.07-1.16
			c-0.05-0.33-0.11-0.49-0.14-0.55l-13.29-0.06v-10.68h15.45c0.01-0.01,0.02-0.03,0.03-0.06c0.04-0.07,0.1-0.25,0.15-0.58
			c0.04-0.31,0.07-0.7,0.07-1.16c0-0.5-0.02-0.91-0.07-1.22c-0.05-0.32-0.11-0.51-0.16-0.61c0-0.01-0.01-0.02-0.02-0.03
			L354.33,201.18z"/>
	</g>
</g>
<text transform="matrix(1.1422 0 0 1 73.4277 -158.3029)" class="st14" style="fill:#FFFFFF;stroke:#FFFFFF;stroke-width:2;stroke-miterlimit:10; font-size:56.2826px; letter-spacing:4.38;">HOPE</text>
</svg>
